<svg xmlns="http://www.w3.org/2000/svg" viewBox="0 0 31.192 31.192"><path d="M25.874 19.225c-.645-1.431-4.575-2.669-4.575-2.669-2.096-.739-2.11-1.477-2.11-1.477-4.124 8.125-7.252.022-7.252.022-.287 1.096-4.528 2.384-4.528 2.384-1.238.477-1.763 1.191-1.763 1.191-1.834 2.717-2.048 8.769-2.048 8.769.024 1.38.618 1.524.618 1.524 4.218 1.882 10.829 2.216 10.829 2.216 6.792.143 11.735-1.929 11.735-1.929.717-.452.738-.811.738-.811.501-4.335-1.644-9.22-1.644-9.22z"/><path d="M10.898 10.786c.315 2.612 2.563 5.32 4.603 5.32 2.344 0 4.572-2.846 4.919-5.32.132-.094.349-.321.428-.837 0 0 .501-1.791-.162-1.599.232-.691.997-3.381-.488-5.053 0 0-.694-.949-2.385-1.452-.059-.049-.119-.099-.188-.147 0 0 .037.043.092.118-.096-.027-.198-.051-.299-.075a5.713 5.713 0 0 0-.311-.3s.102.105.225.28c-.047-.01-.088-.022-.134-.03a2.393 2.393 0 0 0-.289-.359s.05.094.115.242c-.312-.229-.938-.758-.938-1.35 0 0-.391.183-.62.517.09-.275.241-.53.487-.741 0 0-.258.132-.495.418-.185.104-.606.392-.748.904l-.134-.068c.066-.145.158-.298.284-.452 0 0-.183.163-.343.423l-.271-.136c.081-.151.187-.307.331-.459 0 0-.146.112-.3.301.043-.176.036-.378-.512.222 0 0-2.469 1.071-3.183 3.288 0 0-.42 1.001.137 3.946-.791-.374-.252 1.561-.252 1.561.081.517.298.743.431.838zm-.048-1.047zM15.384.516c-.12.167-.224.375-.274.63l-.086-.033c.067-.214.18-.42.36-.597z"/></svg>