<svg xmlns="http://www.w3.org/2000/svg" xmlns:xlink="http://www.w3.org/1999/xlink" viewBox="0 0 562 205"><defs><style>.cls-9{fill:#fff}.cls-21{font-family:SFProDisplay-Regular,SF Pro Display}.cls-14{letter-spacing:.01em}.cls-21{font-size:8.31px;fill:#b3b3b3}.cls-21,.cls-31{letter-spacing:.01em}.cls-36{fill:#333}</style><linearGradient id="linear-gradient" x1="76.06" y1="142.43" x2="238.86" y2="-20.38" gradientUnits="userSpaceOnUse"><stop offset=".01" stop-color="#0694ea"/><stop offset="1" stop-color="#9dc137"/></linearGradient><linearGradient id="linear-gradient-2" x1="27" y1="1286.93" x2="287.92" y2="1286.93" gradientTransform="matrix(1 0 0 -1.02 0 1380.04)" gradientUnits="userSpaceOnUse"><stop offset="0" stop-opacity=".5"/><stop offset=".07" stop-opacity=".29"/><stop offset=".53" stop-opacity=".1"/><stop offset=".93" stop-opacity=".52"/><stop offset="1"/></linearGradient><linearGradient id="linear-gradient-3" x1="468.14" y1="85.66" x2="515.44" y2="38.37" xlink:href="#linear-gradient"/></defs><g id="Layer_2" data-name="Layer 2"><g id="Layer_2-2" data-name="Layer 2"><rect x=".5" y=".5" width="561" height="204" rx="3.44" stroke="#3ba7de" stroke-miterlimit="10" fill="#fff"/><rect x="31" y="132.5" width="90" height="47" rx="4.13" fill="#dfe4eb"/><text transform="translate(38 162.88)" font-size="18" fill="#666" font-family="HeroNew-Light,Hero New" font-weight="300"><tspan letter-spacing="-.01em">C</tspan><tspan x="11.74" y="0" letter-spacing="0">o</tspan><tspan x="23.09" y="0" letter-spacing="-.02em">p</tspan><tspan x="34.49" y="0" letter-spacing="-.02em">y</tspan><tspan x="43.45" y="0"> lin</tspan><tspan x="68.33" y="0" letter-spacing="-.01em">k</tspan></text><path class="cls-9" d="M27 28.68h506v64.69H27z"/><path fill="url(#linear-gradient)" d="M27 28.68h260.92v64.69H27z"/><path opacity=".12" fill="url(#linear-gradient-2)" d="M27 28.5h260.92v64.87H27z"/><text transform="translate(49.46 60.46)" letter-spacing=".01em" font-family="SFProDisplay-Bold,SF Pro Display" font-weight="700" font-size="20.07" fill="#fff">High <tspan letter-spacing="-.01em" font-weight="400" font-family="SFProDisplay-Regular,SF Pro Display" font-size="10.03" opacity=".5"><tspan x="0" y="15.05">P</tspan><tspan class="cls-14" x="5.65" y="15.05">er</tspan><tspan x="14.08" y="15.05">f</tspan><tspan class="cls-14" x="16.98" y="15.05">ormance</tspan></tspan></text><text transform="translate(138.35 60.46)" letter-spacing="0" font-family="SFProDisplay-Bold,SF Pro Display" font-weight="700" font-size="20.07" fill="#fff">2<tspan x="12.06" y="0" letter-spacing=".01em">4/7</tspan><tspan letter-spacing=".01em" font-weight="400" font-family="SFProDisplay-Regular,SF Pro Display" font-size="10.03" opacity=".5"><tspan x="0" y="15.05">Support</tspan></tspan></text><text transform="translate(211.94 60.46)" letter-spacing=".01em" font-family="SFProDisplay-Bold,SF Pro Display" font-weight="700" font-size="20.07" fill="#fff">4<tspan x="13.15" y="0">0+</tspan><tspan letter-spacing="0" font-weight="400" font-family="SFProDisplay-Regular,SF Pro Display" font-size="10.03" opacity=".5"><tspan x="0" y="15.05">L</tspan><tspan class="cls-14" x="5.21" y="15.05">ocations</tspan></tspan></text><path class="cls-9" d="M288.64 68.1l-7.17-7.16 7.17-7.17"/><text class="cls-21" transform="translate(379.42 48.55)">S<tspan x="5.01" y="0" letter-spacing="0">t</tspan><tspan x="7.52" y="0">arting f</tspan><tspan x="32.28" y="0" letter-spacing="-.01em">r</tspan><tspan x="34.72" y="0">om</tspan></text><text transform="translate(366.51 68.62)" font-size="19.38" fill="#3ba7de" letter-spacing=".01em" font-family="SFProDisplay-Bold,SF Pro Display" font-weight="700">$4<tspan x="25.48" y="0">.</tspan><tspan x="30.96" y="0">99</tspan><tspan x="56.36" y="0" font-size="11.08" font-weight="400" font-family="SFProDisplay-Regular,SF Pro Display">/mo</tspan></text><text class="cls-21" transform="translate(384.32 82.24)">100 mbps</text><rect x="457.89" y="47.96" width="67.8" height="28.11" rx="1.13" fill="url(#linear-gradient-3)"/><text transform="translate(465.74 65.74)" font-size="9.92" letter-spacing=".01em" font-family="SFProDisplay-Bold,SF Pro Display" font-weight="700" fill="#fff">Get S<tspan x="24.97" y="0">t</tspan><tspan class="cls-31" x="28.55" y="0">ar</tspan><tspan x="37.79" y="0" letter-spacing="0">t</tspan><tspan class="cls-31" x="41.34" y="0">ed</tspan></text><path d="M311.49 54.51A9 9 0 0 1 318 57.8c.2-.11.41-.2.62-.29a9.67 9.67 0 0 0-7.12-3.67z" fill="#a6def4"/><path d="M311.26 72.59H311a9.06 9.06 0 0 1-9-8.88h-.67a9.73 9.73 0 0 0 9.67 9.56h.45c-.07-.27-.13-.45-.19-.68z" fill="#0694ea"/><path d="M302 62.72a9 9 0 0 1 8.51-8.21v-.67a9.7 9.7 0 0 0-9.18 8.88z" fill="#6bc2ef"/><path class="cls-36" d="M305.71 61.59h.45v3.12h1.49v.38h-1.94zM309 61.87a.28.28 0 1 1-.56 0 .27.27 0 0 1 .28-.28.27.27 0 0 1 .28.28zm-.5 3.22v-2.51h.45v2.51zM310 63.26v-.68h.4v.4a.88.88 0 0 1 .79-.46.74.74 0 0 1 .71.51.91.91 0 0 1 .28-.33.86.86 0 0 1 .55-.18c.33 0 .83.22.83 1.09v1.48h-.45v-1.42c0-.48-.18-.77-.54-.77a.58.58 0 0 0-.54.41.79.79 0 0 0 0 .23v1.55h-.45v-1.5c0-.4-.17-.69-.52-.69a.64.64 0 0 0-.57.45.85.85 0 0 0 0 .23v1.51H310zM314.91 63.92a.8.8 0 0 0 .86.87 1.65 1.65 0 0 0 .69-.13l.08.33a2.06 2.06 0 0 1-.83.15 1.16 1.16 0 0 1-1.24-1.26 1.23 1.23 0 0 1 1.18-1.36 1.19 1.19 0 0 1 1 1.4zm1.34-.33a.65.65 0 0 0-.64-.74.76.76 0 0 0-.7.74zM327.07 60.22h.64v.72a2.24 2.24 0 0 1 .62-.64 1.2 1.2 0 0 1 .67-.21 1.06 1.06 0 0 1 .56.17l-.33.53a1 1 0 0 0-.33-.08.9.9 0 0 0-.62.26 1.72 1.72 0 0 0-.45.81 7.65 7.65 0 0 0-.12 1.71v1.67h-.64zM342.44 58.18a.5.5 0 0 1 .37.15.51.51 0 0 1 .16.38.53.53 0 0 1-.53.52.49.49 0 0 1-.36-.15.52.52 0 0 1 0-.75.49.49 0 0 1 .36-.15zm-.31 2a.53.53 0 0 1 .63 0v4.94h-.63zM354 60.76l-.52.42a2.09 2.09 0 0 0-1.26-.5 1.1 1.1 0 0 0-.68.21.56.56 0 0 0-.28.47.62.62 0 0 0 .23.46 3.42 3.42 0 0 0 1 .53 3.6 3.6 0 0 1 1.23.7 1.13 1.13 0 0 1 .32.78 1.26 1.26 0 0 1-.54 1 2.18 2.18 0 0 1-1.36.42 3 3 0 0 1-1-.18 2.39 2.39 0 0 1-.82-.51l.51-.46a1.93 1.93 0 0 0 1.31.55 1.4 1.4 0 0 0 .83-.24.71.71 0 0 0 .34-.58.66.66 0 0 0-.22-.49 3.75 3.75 0 0 0-1-.52 3.15 3.15 0 0 1-1.16-.69 1.07 1.07 0 0 1-.31-.76 1.13 1.13 0 0 1 .49-.94 2 2 0 0 1 1.24-.37 2.85 2.85 0 0 1 1.65.7zM321.08 63a1.09 1.09 0 0 1 0-.18V60.2h-.63v7.1h.63zM324.38 60.81a1.93 1.93 0 0 0-1.5-.72 1.77 1.77 0 0 0-.91.24 1.49 1.49 0 0 0-.2.15v.66a1.43 1.43 0 0 1 1.07-.47 1.41 1.41 0 0 1 .81.25 1.73 1.73 0 0 1 .6.7 2.21 2.21 0 0 1 .22 1 2.14 2.14 0 0 1-.23 1 1.69 1.69 0 0 1-.59.7 1.41 1.41 0 0 1-.81.25 1.48 1.48 0 0 1-.82-.25 2.43 2.43 0 0 1-.25-.2v.63l.22.15a1.89 1.89 0 0 0 .91.23 1.91 1.91 0 0 0 1.49-.72 2.64 2.64 0 0 0 .61-1.76 2.54 2.54 0 0 0-.62-1.84zM334.33 63.05a1.78 1.78 0 0 1-.17.49 1.73 1.73 0 0 1-.63.68 1.59 1.59 0 0 1-.86.24 1.62 1.62 0 0 1-.86-.24 1.7 1.7 0 0 1-.62-.68 2.22 2.22 0 0 1-.18-.49h-.58a2.55 2.55 0 0 0 .59 1.24 2.21 2.21 0 0 0 3.3 0 2.49 2.49 0 0 0 .6-1.24zM331 62.39a1.93 1.93 0 0 1 .49-1.15 1.59 1.59 0 0 1 2.42 0 1.82 1.82 0 0 1 .49 1.15h.6a2.51 2.51 0 0 0-.6-1.52 2.19 2.19 0 0 0-3.36 0 2.52 2.52 0 0 0-.6 1.51zM348.73 63.83a3.18 3.18 0 0 1-1.11.74 2.06 2.06 0 0 1-.74.13 1.74 1.74 0 0 1-1.31-.55 2 2 0 0 1-.55-1.41 3.31 3.31 0 0 1 .06-.55 2.3 2.3 0 0 1 .58-1 1.82 1.82 0 0 1 1.25-.46 2 2 0 0 1 .84.18 1.92 1.92 0 0 1 .65.49 2.31 2.31 0 0 1 .37.82h-2.85v.55h3.55a2.68 2.68 0 0 0-.55-1.69 2.43 2.43 0 0 0-2-1 2.37 2.37 0 0 0-2 .93 2.67 2.67 0 0 0-.57 1.68 2.64 2.64 0 0 0 .68 1.79 2.34 2.34 0 0 0 1.89.79 2.76 2.76 0 0 0 1-.16 3.14 3.14 0 0 0 1.28-.87M339.24 63.07l-.38.54 1.18 1.55h.78l-1.58-2.09zM338.25 61.72l-1.2-1.63h-.77l1.59 2.17.38-.54zM339.13 62.42l1.69-2.33h-.77l-1.3 1.81-.38.53-1.91 2.69h.76l1.53-2.17.38-.53z"/></g></g></svg>