<svg xmlns="http://www.w3.org/2000/svg" xmlns:xlink="http://www.w3.org/1999/xlink" width="24.67" height="17.33" viewBox="0 0 37 26"><defs><path id="a" d="M1051.448 2270.197l-4.459-3.906-12.732 10.91a2.54 2.54 0 0 0 1.77.704h30.828c.69 0 1.306-.263 1.768-.704l-12.733-10.91z"/><path id="b" d="M1068.623 2252.893a2.518 2.518 0 0 0-1.768-.704h-30.828a2.57 2.57 0 0 0-1.77.704l17.191 14.729z"/><path id="c" d="M1033.44 2254.448v21.361l12.431-10.563z"/><path id="d" d="M1057.01 2265.246l12.43 10.563v-21.374z"/></defs><use fill="#1081e0" xlink:href="#a" transform="translate(-1033 -2252)"/><use fill="#1081e0" xlink:href="#b" transform="translate(-1033 -2252)"/><use fill="#1081e0" xlink:href="#c" transform="translate(-1033 -2252)"/><use fill="#1081e0" xlink:href="#d" transform="translate(-1033 -2252)"/></svg>