<svg xmlns="http://www.w3.org/2000/svg" xmlns:xlink="http://www.w3.org/1999/xlink" width="160" height="134.67" viewBox="0 0 240 202"><defs><path id="a" d="M1032.143 4793.486c-4.687 0-8.5-3.813-8.5-8.5v-9.74h-94.76v9.74c0 4.687-3.812 8.5-8.5 8.5h-23.417c-4.687 0-8.5-3.813-8.5-8.5v-9.74h-6.221a7.998 7.998 0 0 1-1.59-.16c-3.664-.75-6.323-4.01-6.323-7.752 0-.449.045-.91.136-1.41a8.049 8.049 0 0 1 .448-1.558c.036-.09.085-.199.136-.307.112-.244.223-.473.349-.69l2.97-5.11 1.027 1.701a7.827 7.827 0 0 1 2.847-.538h6.22v-3.098h-5.747c-4.624 0-8.386-3.762-8.386-8.386v-28.352c0-7.445 6.056-13.5 13.5-13.5h.634v-3.144h-5.748c-4.624 0-8.386-3.762-8.386-8.386v-28.352c0-7.445 6.056-13.5 13.5-13.5h.634v-3.143h-5.748c-4.624 0-8.386-3.762-8.386-8.387v-28.35c0-7.445 6.056-13.5 13.5-13.5h105.837l1.495-.047h74.186c4.624 0 8.386 3.762 8.386 8.386v.955a111.784 111.784 0 0 1 18.027 6.744c6.252 2.978 10.292 9.377 10.292 16.303v56.671c0 10.893-4.454 21.522-12.22 29.161l-16.1 15.84v14.555c0 4.67-3.761 8.432-8.385 8.432h-5.29v3.098h5.764c.986 0 1.95.188 2.846.538l1.025-1.7 2.97 5.108c.128.217.239.446.345.677.058.123.107.232.152.345a7.705 7.705 0 0 1 .438 1.533c.09.5.136.96.136 1.41a7.906 7.906 0 0 1-3.486 6.56 7.85 7.85 0 0 1-4.426 1.353h-5.764v9.74c0 4.687-3.813 8.5-8.5 8.5z"/><path id="b" d="M1069.35 4602.777a4.887 4.887 0 0 1 4.886 4.886v3.647a108.044 108.044 0 0 1 20.022 7.211 14.557 14.557 0 0 1 8.297 13.143v56.672a37.406 37.406 0 0 1-11.173 26.666l-17.146 16.868v16.067a4.887 4.887 0 0 1-4.886 4.887h-8.79v10.098h9.264c1.634 0 3.045.898 3.807 2.22.003-.006.007-.01.01-.014.07.12.128.248.187.376.028.06.058.12.083.181a4.51 4.51 0 0 1 .246.866c.047.254.08.513.08.781v.002a4.408 4.408 0 0 1-4.413 4.412h-9.264v13.241a5 5 0 0 1-5 5h-23.417a5 5 0 0 1-5-5v-13.24H925.384v13.24a5 5 0 0 1-5 5h-23.418a5 5 0 0 1-5-5v-13.24h-9.72a4.414 4.414 0 0 1-4.413-4.412 4.97 4.97 0 0 1 .122-.995c.052-.225.117-.445.203-.655.025-.062.054-.12.082-.18.06-.129.117-.257.187-.377l.01.013c.762-1.32 2.173-2.219 3.808-2.219h9.721v-10.098h-9.248a4.887 4.887 0 0 1-4.886-4.887v-28.35c0-5.525 4.477-10 10-10H995.12l.045-.047H891.966v-10.098h-9.248a4.886 4.886 0 0 1-4.886-4.886v-28.352c0-5.523 4.477-10 10-10h105.28v-.046H891.965v-10.098h-9.247a4.886 4.886 0 0 1-4.886-4.886v-28.351c0-5.524 4.477-10 10-10H995.12l.045-.046h74.186zm0-7h-77.086l-.047.046H887.832c-9.374 0-17 7.626-17 17v28.351c0 4.968 3.063 9.233 7.4 11.007-4.465 3.067-7.4 8.21-7.4 14.023v28.352c0 4.967 3.063 9.233 7.4 11.007-4.466 3.067-7.4 8.208-7.4 14.023v28.351c0 3.631 1.636 6.886 4.21 9.068l-2.673 4.615c-.233.403-.392.75-.487.954-.077.164-.153.336-.224.512a11.083 11.083 0 0 0-.632 2.201 11.295 11.295 0 0 0-.194 2.047c0 5.396 3.836 10.1 9.121 11.18.748.154 1.52.232 2.292.232h2.721v6.241c0 6.616 5.384 12 12 12h23.418c6.616 0 12-5.384 12-12v-6.24h87.76v6.24c0 6.616 5.382 12 12 12h23.416c6.617 0 12-5.384 12-12v-6.24h2.264c.771 0 1.543-.079 2.295-.234a11.31 11.31 0 0 0 4.091-1.72 11.402 11.402 0 0 0 5.026-9.459c0-.664-.063-1.33-.193-2.04a11.318 11.318 0 0 0-.649-2.246 7.449 7.449 0 0 0-.21-.478c-.093-.2-.25-.547-.485-.95l-2.672-4.615a11.865 11.865 0 0 0 4.21-9.068v-13.134l15.054-14.81c8.43-8.294 13.264-19.832 13.264-31.657v-56.672c0-8.268-4.823-15.907-12.287-19.462a115.28 115.28 0 0 0-16.154-6.247c-.83-5.748-5.79-10.178-11.764-10.178z"/><path id="d" d="M891.97 4656.16v-10.1h168.59v10.1z"/><path id="e" d="M1060.56 4656.158h-84.297l9.772-10.097h74.525z"/><path id="f" d="M1064.236 4646.061H887.832c-5.523 0-10-4.477-10-10v-23.237c0-5.525 4.477-10 10-10h176.404c5.523 0 10 4.475 10 10v23.237c0 5.523-4.477 10-10 10z"/><path id="g" d="M951.926 4646.016h117.424a4.887 4.887 0 0 0 4.886-4.887v-33.466a4.886 4.886 0 0 0-4.886-4.885h-74.186z"/><path id="h" d="M1069.35 4639.22H882.718a4.887 4.887 0 0 1-4.886-4.885v6.84a4.887 4.887 0 0 0 4.886 4.887h186.632a4.887 4.887 0 0 0 4.886-4.887v-6.84a4.887 4.887 0 0 1-4.886 4.886z"/><path id="i" d="M898.47 4631.318a3.299 3.299 0 0 1-3.298-3.299v-14.657a3.299 3.299 0 0 1 6.596 0v14.657a3.299 3.299 0 0 1-3.298 3.3z"/><path id="j" d="M898.47 4626.188a3.299 3.299 0 0 1-3.298-3.299v5.13a3.299 3.299 0 1 0 6.596 0v-5.13a3.299 3.299 0 0 1-3.298 3.299z"/><path id="k" d="M918.502 4631.318a3.299 3.299 0 0 1-3.298-3.299v-14.657a3.299 3.299 0 0 1 6.596 0v14.657a3.299 3.299 0 0 1-3.298 3.3z"/><path id="l" d="M938.535 4631.318a3.299 3.299 0 0 1-3.298-3.299v-14.657a3.299 3.299 0 0 1 6.596 0v14.657a3.299 3.299 0 0 1-3.298 3.3z"/><path id="m" d="M918.502 4626.188a3.299 3.299 0 0 1-3.298-3.299v5.13a3.299 3.299 0 1 0 6.596 0v-5.13a3.299 3.299 0 0 1-3.298 3.299z"/><path id="n" d="M938.535 4626.188a3.299 3.299 0 0 1-3.298-3.299v5.13a3.299 3.299 0 1 0 6.596 0v-5.13a3.299 3.299 0 0 1-3.298 3.299z"/><path id="p" d="M891.97 4709.54v-10.1h168.59v10.1z"/><path id="q" d="M1060.56 4709.54h-84.297l9.772-10.098h74.525z"/><path id="r" d="M1064.236 4699.442H887.832c-5.523 0-10-4.477-10-10v-23.238c0-5.523 4.477-10 10-10h176.404c5.523 0 10 4.477 10 10v23.238c0 5.523-4.477 10-10 10z"/><path id="s" d="M951.926 4699.396h117.424a4.887 4.887 0 0 0 4.886-4.885v-33.467a4.886 4.886 0 0 0-4.886-4.886h-74.186z"/><path id="t" d="M1069.35 4692.602H882.718a4.887 4.887 0 0 1-4.886-4.885v6.84a4.887 4.887 0 0 0 4.886 4.885h186.632a4.887 4.887 0 0 0 4.886-4.885v-6.84a4.887 4.887 0 0 1-4.886 4.885z"/><path id="u" d="M898.47 4684.7a3.299 3.299 0 0 1-3.298-3.299v-14.658a3.299 3.299 0 0 1 6.596 0v14.658a3.299 3.299 0 0 1-3.298 3.298z"/><path id="v" d="M898.47 4679.57a3.299 3.299 0 0 1-3.298-3.299v5.13a3.299 3.299 0 0 0 6.596 0v-5.13a3.299 3.299 0 0 1-3.298 3.298z"/><path id="w" d="M918.502 4684.7a3.299 3.299 0 0 1-3.298-3.299v-14.658a3.299 3.299 0 0 1 6.596 0v14.658a3.299 3.299 0 0 1-3.298 3.298z"/><path id="x" d="M938.535 4684.7a3.299 3.299 0 0 1-3.298-3.299v-14.658a3.299 3.299 0 0 1 6.596 0v14.658a3.299 3.299 0 0 1-3.298 3.298z"/><path id="y" d="M918.502 4679.57a3.299 3.299 0 0 1-3.298-3.299v5.13a3.299 3.299 0 0 0 6.596 0v-5.13a3.299 3.299 0 0 1-3.298 3.298z"/><path id="z" d="M938.535 4679.57a3.299 3.299 0 0 1-3.298-3.299v5.13a3.299 3.299 0 0 0 6.596 0v-5.13a3.299 3.299 0 0 1-3.298 3.298z"/><path id="B" d="M891.97 4762.93v-10.1h168.59v10.1z"/><path id="C" d="M1060.56 4762.922h-84.297l9.772-10.098h74.525z"/><path id="D" d="M1064.236 4752.824H887.832c-5.523 0-10-4.478-10-10v-23.238c0-5.524 4.477-10 10-10h176.404c5.523 0 10 4.476 10 10v23.238c0 5.522-4.477 10-10 10z"/><path id="E" d="M951.926 4752.778h117.424a4.887 4.887 0 0 0 4.886-4.886v-33.467a4.886 4.886 0 0 0-4.886-4.885h-74.186z"/><path id="F" d="M1069.35 4745.983H882.718a4.887 4.887 0 0 1-4.886-4.886v6.841a4.887 4.887 0 0 0 4.886 4.886h186.632a4.887 4.887 0 0 0 4.886-4.886v-6.84a4.887 4.887 0 0 1-4.886 4.885z"/><path id="G" d="M898.47 4738.081a3.299 3.299 0 0 1-3.298-3.298v-14.658a3.299 3.299 0 0 1 6.596 0v14.658a3.299 3.299 0 0 1-3.298 3.298z"/><path id="H" d="M898.47 4732.95a3.299 3.299 0 0 1-3.298-3.298v5.131a3.299 3.299 0 0 0 6.596 0v-5.13a3.299 3.299 0 0 1-3.298 3.297z"/><path id="I" d="M918.502 4738.081a3.299 3.299 0 0 1-3.298-3.298v-14.658a3.299 3.299 0 0 1 6.596 0v14.658a3.299 3.299 0 0 1-3.298 3.298z"/><path id="J" d="M938.535 4738.081a3.299 3.299 0 0 1-3.298-3.298v-14.658a3.299 3.299 0 0 1 6.596 0v14.658a3.299 3.299 0 0 1-3.298 3.298z"/><path id="K" d="M918.502 4732.95a3.299 3.299 0 0 1-3.298-3.298v5.131a3.299 3.299 0 0 0 6.596 0v-5.13a3.299 3.299 0 0 1-3.298 3.297z"/><path id="L" d="M938.535 4732.95a3.299 3.299 0 0 1-3.298-3.298v5.131a3.299 3.299 0 0 0 6.596 0v-5.13a3.299 3.299 0 0 1-3.298 3.297z"/><path id="M" d="M1069.824 4771.746h-187.58a4.412 4.412 0 0 1 0-8.824h187.58a4.412 4.412 0 0 1 0 8.824z"/><path id="N" d="M1069.824 4767.334h-187.58a4.408 4.408 0 0 1-3.816-2.206 4.375 4.375 0 0 0-.595 2.206 4.412 4.412 0 0 0 4.412 4.412h187.579a4.412 4.412 0 0 0 4.412-4.412c0-.805-.22-1.557-.595-2.206a4.408 4.408 0 0 1-3.817 2.206z"/><path id="P" d="M891.965 4771.746v13.241a5 5 0 0 0 5 5h23.418a5 5 0 0 0 5-5v-13.241z"/><path id="R" d="M1027.143 4771.746v13.241a5 5 0 0 0 5 5h23.418a5 5 0 0 0 5-5v-13.241z"/><path id="S" d="M891.97 4779.24v-7.49h33.42v7.49z"/><path id="T" d="M1027.14 4779.24v-7.49h33.42v7.49z"/><path id="U" d="M1091.382 4715.002l-36.121 35.536c-4.122 4.055-10.733 4.055-14.855 0l-36.121-35.536a37.405 37.405 0 0 1-11.174-26.666v-56.672a14.555 14.555 0 0 1 8.298-13.141 107.957 107.957 0 0 1 92.849 0 14.554 14.554 0 0 1 8.297 13.141v56.672a37.404 37.404 0 0 1-11.173 26.666z"/><path id="V" d="M1096.448 4685.435v-49.55c0-4.909-2.868-9.38-7.371-11.49h-.001c-26.091-12.23-56.395-12.23-82.486 0-4.503 2.11-7.371 6.581-7.371 11.49v49.55c0 8.767 3.576 17.167 9.926 23.315l32.09 31.071c3.66 3.545 9.535 3.545 13.197 0l32.09-31.07c6.35-6.149 9.926-14.549 9.926-23.316z"/><path id="X" d="M1010.106 4628.237a11.828 11.828 0 0 0-6.743 10.679v46.054c0 8.15 3.27 15.957 9.08 21.672l29.355 28.877a8.606 8.606 0 0 0 12.071 0l29.354-28.877a30.405 30.405 0 0 0 9.081-21.672v-46.054a11.83 11.83 0 0 0-6.743-10.679h-.002a87.696 87.696 0 0 0-37.726-8.525 87.7 87.7 0 0 0-37.727 8.525z"/><path id="Y" d="M1085.56 4628.236a87.74 87.74 0 0 0-75.454 0 11.83 11.83 0 0 0-6.743 10.68v6.352a11.83 11.83 0 0 1 6.743-10.68 87.733 87.733 0 0 1 75.454 0 11.83 11.83 0 0 1 6.743 10.68v-6.352a11.83 11.83 0 0 0-6.743-10.68z"/><path id="Z" d="M1067.504 4667.941v-6.896c0-10.912-8.877-19.789-19.79-19.789-10.91 0-19.788 8.877-19.788 19.79v6.894a62.25 62.25 0 0 0-2.17.827v34.853a61.02 61.02 0 0 0 8.899 2.82 57.59 57.59 0 0 0 10.872 1.468h.006c1.454.056 2.91.056 4.364 0h.006a57.627 57.627 0 0 0 10.876-1.469 61.02 61.02 0 0 0 8.895-2.819v-34.853a65.136 65.136 0 0 0-2.17-.826zm-19.79-19.742c7.084 0 12.846 5.763 12.846 12.846v4.848a57.254 57.254 0 0 0-25.69.002v-4.85c0-7.083 5.762-12.846 12.845-12.846z"/><path id="aa" d="M1067.504 4679.254h-6.943v-23.096c0-7.083-5.763-12.844-12.846-12.844s-12.845 5.76-12.845 12.844v23.096h-6.944v-23.096c0-10.911 8.878-19.788 19.789-19.788 10.912 0 19.789 8.877 19.789 19.788z"/><path id="ab" d="M1047.715 4640.37c-8.662 0-15.71 6.234-15.71 13.897v24.987h2.865v-23.096c0-7.083 5.762-12.845 12.845-12.845 7.083 0 12.845 5.762 12.845 12.845v23.096h2.865v-24.987c0-7.663-7.048-13.897-15.71-13.897z"/><path id="ac" d="M1069.674 4698.734c-14.29 5.778-29.627 5.778-43.917 0v-34.853c13.379-5.41 27.675-5.755 41.17-1.035.92.322 1.836.666 2.747 1.035z"/><path id="ad" d="M1030.356 4662.236v38.144c11.403 3.58 23.314 3.58 34.717 0v-38.144c-11.403-3.579-23.314-3.579-34.717 0z"/><path id="ae" d="M1053.646 4676.216a5.931 5.931 0 1 1-11.863 0 5.931 5.931 0 0 1 11.863 0z"/><path id="af" d="M1047.715 4690.913a3.517 3.517 0 0 1-3.517-3.517v-11.238h7.034v11.238a3.517 3.517 0 0 1-3.517 3.517z"/><path id="ag" d="M1047.715 4689.452a1.44 1.44 0 0 1-1.44-1.439v-10.192h2.88v10.192a1.44 1.44 0 0 1-1.44 1.44z"/><path id="ah" d="M1051.231 4676.216a3.517 3.517 0 1 1-7.033 0 3.517 3.517 0 0 1 7.033 0z"/><path id="ai" d="M1069.674 4667.226a62.75 62.75 0 0 0-2.173-.81c-13.73-4.802-28.148-4.517-41.744.809v3.599c.216 0 .437-.038.65-.125 12.993-5.254 26.807-5.602 39.948-1.006.89.31 1.788.65 2.668 1.006.214.087.434.128.65.128v-.001z"/><path id="aj" d="M1025.756 4695.39a60.27 60.27 0 0 0 2.173.81c6.497 2.273 13.147 3.407 19.793 3.407 7.398 0 14.789-1.41 21.951-4.216v-3.598c-.216 0-.437.038-.65.124-12.993 5.255-26.807 5.603-39.948 1.006a57.916 57.916 0 0 1-2.668-1.006 1.717 1.717 0 0 0-.651-.124z"/><linearGradient id="c" x1="891.97" x2="1060.56" y1="4651.11" y2="4651.11" gradientUnits="userSpaceOnUse"><stop offset="0" stop-color="#0693e9"/><stop offset=".01" stop-color="#0693e9"/><stop offset="1" stop-color="#9cc037"/><stop offset="1" stop-color="#9cc037"/></linearGradient><linearGradient id="o" x1="891.97" x2="1060.56" y1="4704.49" y2="4704.49" gradientUnits="userSpaceOnUse"><stop offset="0" stop-color="#0693e9"/><stop offset=".01" stop-color="#0693e9"/><stop offset="1" stop-color="#9cc037"/><stop offset="1" stop-color="#9cc037"/></linearGradient><linearGradient id="A" x1="891.97" x2="1060.56" y1="4757.87" y2="4757.87" gradientUnits="userSpaceOnUse"><stop offset="0" stop-color="#0693e9"/><stop offset=".01" stop-color="#0693e9"/><stop offset="1" stop-color="#9cc037"/><stop offset="1" stop-color="#9cc037"/></linearGradient><linearGradient id="O" x1="891.97" x2="925.38" y1="4780.87" y2="4780.87" gradientUnits="userSpaceOnUse"><stop offset="0" stop-color="#0693e9"/><stop offset=".01" stop-color="#0693e9"/><stop offset="1" stop-color="#9cc037"/><stop offset="1" stop-color="#9cc037"/></linearGradient><linearGradient id="Q" x1="1027.14" x2="1060.56" y1="4780.87" y2="4780.87" gradientUnits="userSpaceOnUse"><stop offset="0" stop-color="#0693e9"/><stop offset=".01" stop-color="#0693e9"/><stop offset="1" stop-color="#9cc037"/><stop offset="1" stop-color="#9cc037"/></linearGradient><linearGradient id="W" x1="1003.36" x2="1092.3" y1="4678.85" y2="4678.85" gradientUnits="userSpaceOnUse"><stop offset="0" stop-color="#0693e9"/><stop offset=".01" stop-color="#0693e9"/><stop offset="1" stop-color="#9cc037"/><stop offset="1" stop-color="#9cc037"/></linearGradient></defs><use fill="#d0d2d3" xlink:href="#a" transform="translate(-870 -4595)"/><use fill="#fff" xlink:href="#b" transform="translate(-870 -4595)"/><use fill="url(#c)" xlink:href="#d" transform="translate(-870 -4595)"/><use xlink:href="#e" opacity=".26" transform="translate(-870 -4595)"/><use fill="#25a9e0" xlink:href="#f" transform="translate(-870 -4595)"/><use fill="#0292c4" xlink:href="#g" transform="translate(-870 -4595)"/><use fill="#3e499e" xlink:href="#h" transform="translate(-870 -4595)"/><use fill="#fff" xlink:href="#i" transform="translate(-870 -4595)"/><use fill="#d2d2d2" xlink:href="#j" transform="translate(-870 -4595)"/><use fill="#fff" xlink:href="#k" transform="translate(-870 -4595)"/><use fill="#fff" xlink:href="#l" transform="translate(-870 -4595)"/><use fill="#d2d2d2" xlink:href="#m" transform="translate(-870 -4595)"/><use fill="#d2d2d2" xlink:href="#n" transform="translate(-870 -4595)"/><use fill="url(#o)" xlink:href="#p" transform="translate(-870 -4595)"/><use xlink:href="#q" opacity=".26" transform="translate(-870 -4595)"/><use fill="#25a9e0" xlink:href="#r" transform="translate(-870 -4595)"/><use fill="#0292c4" xlink:href="#s" transform="translate(-870 -4595)"/><use fill="#3e499e" xlink:href="#t" transform="translate(-870 -4595)"/><use fill="#fff" xlink:href="#u" transform="translate(-870 -4595)"/><use fill="#d2d2d2" xlink:href="#v" transform="translate(-870 -4595)"/><use fill="#fff" xlink:href="#w" transform="translate(-870 -4595)"/><use fill="#fff" xlink:href="#x" transform="translate(-870 -4595)"/><use fill="#d2d2d2" xlink:href="#y" transform="translate(-870 -4595)"/><use fill="#d2d2d2" xlink:href="#z" transform="translate(-870 -4595)"/><use fill="url(#A)" xlink:href="#B" transform="translate(-870 -4595)"/><use xlink:href="#C" opacity=".26" transform="translate(-870 -4595)"/><use fill="#25a9e0" xlink:href="#D" transform="translate(-870 -4595)"/><use fill="#0292c4" xlink:href="#E" transform="translate(-870 -4595)"/><use fill="#3e499e" xlink:href="#F" transform="translate(-870 -4595)"/><use fill="#fff" xlink:href="#G" transform="translate(-870 -4595)"/><use fill="#d2d2d2" xlink:href="#H" transform="translate(-870 -4595)"/><use fill="#fff" xlink:href="#I" transform="translate(-870 -4595)"/><use fill="#fff" xlink:href="#J" transform="translate(-870 -4595)"/><use fill="#d2d2d2" xlink:href="#K" transform="translate(-870 -4595)"/><use fill="#d2d2d2" xlink:href="#L" transform="translate(-870 -4595)"/><use fill="#79aadb" xlink:href="#M" transform="translate(-870 -4595)"/><use fill="#0292c4" xlink:href="#N" transform="translate(-870 -4595)"/><use fill="url(#O)" xlink:href="#P" transform="translate(-870 -4595)"/><use fill="url(#Q)" xlink:href="#R" transform="translate(-870 -4595)"/><use xlink:href="#S" opacity=".26" transform="translate(-870 -4595)"/><use xlink:href="#T" opacity=".26" transform="translate(-870 -4595)"/><use fill="#fff" xlink:href="#U" transform="translate(-870 -4595)"/><use fill="#d0d2d3" xlink:href="#V" transform="translate(-870 -4595)"/><use fill="url(#W)" xlink:href="#X" transform="translate(-870 -4595)"/><use fill="gray" xlink:href="#Y" transform="translate(-870 -4595)"/><use xlink:href="#Z" opacity=".26" transform="translate(-870 -4595)"/><use fill="#25a9e0" xlink:href="#aa" transform="translate(-870 -4595)"/><use fill="#0292c4" xlink:href="#ab" transform="translate(-870 -4595)"/><use fill="#d0d2d3" xlink:href="#ac" transform="translate(-870 -4595)"/><use fill="#fff" xlink:href="#ad" transform="translate(-870 -4595)"/><use fill="#25a9e0" xlink:href="#ae" transform="translate(-870 -4595)"/><use fill="#25a9e0" xlink:href="#af" transform="translate(-870 -4595)"/><use fill="#273a95" xlink:href="#ag" transform="translate(-870 -4595)"/><use fill="#273a95" xlink:href="#ah" transform="translate(-870 -4595)"/><use fill="#d0d2d3" xlink:href="#ai" transform="translate(-870 -4595)"/><use fill="#d0d2d3" xlink:href="#aj" transform="translate(-870 -4595)"/></svg>