<svg xmlns="http://www.w3.org/2000/svg" xmlns:xlink="http://www.w3.org/1999/xlink" width="207" height="170"><defs><path id="b" d="M1510.077 669.297c0 3.605-25.975 6.528-58.017 6.528-32.04 0-58.016-2.923-58.016-6.528 0-3.605 25.975-6.528 58.016-6.528 32.042 0 58.017 2.923 58.017 6.528z"/><path id="c" d="M1383.64 506.407c22.356 0 40.545 18.19 40.545 40.545 0 22.357-18.188 40.545-40.545 40.545-22.356 0-40.544-18.188-40.544-40.545 0-19.499 15.5-40.545 40.544-40.545zm29.042 17.31a37.385 37.385 0 0 0-15.089-11.259 734.867 734.867 0 0 1-1.032 7.963 6.092 6.092 0 0 1 3.204 3.398c5.425-.545 9.991-.37 12.917-.103zm-12.405 40.06a6.065 6.065 0 0 1 3.307-4.444c-.143-7.078-1.565-15.05-5.795-22.544a59.53 59.53 0 0 0-2.896-4.615 616.48 616.48 0 0 1-1.316 8.39c-.898 5.45-3.53 12.522-6.572 19.426a6.044 6.044 0 0 1 1.528 3.79c4.357.283 8.276.241 11.745-.003zm-17.813-5.855c.588 0 1.146.11 1.684.264 2.87-6.548 5.32-13.154 6.146-18.163a611.48 611.48 0 0 0 1.33-8.485 6.092 6.092 0 0 1-2.636-2.245c-5.005 1.426-10.24 3.613-15.27 6.954-5.285 3.512-9.432 7.184-12.679 10.67a6.061 6.061 0 0 1 1.04 3.403c0 1.104-.318 2.127-.83 3.02 4.258 3.531 9.457 6.723 15.52 8.566.86-2.32 3.074-3.984 5.694-3.984zm1.176-48.188a38.2 38.2 0 0 0-9.11 1.09c3.914 1.675 9.734 4.858 15.602 10.552a6.023 6.023 0 0 1 3.135-1.408 804.01 804.01 0 0 0 1.116-8.647 37.094 37.094 0 0 0-10.743-1.587zm-14.26 2.764c-11.2 4.618-18.816 14.456-21.68 25.087.684 1.161 2.484 4.031 5.301 7.456.886-.502 1.895-.812 2.985-.812.886 0 1.721.198 2.481.537 3.424-3.683 7.797-7.562 13.408-11.29 5.353-3.557 10.871-5.888 16.128-7.406 0-.032-.009-.062-.009-.095 0-.598.113-1.164.274-1.71-8.509-8.41-17.026-11.23-18.889-11.767zm-22.957 34.454c0 4.294.74 8.416 2.083 12.256.65-1.41 1.573-3.147 2.765-5.077-.846-1.046-1.374-2.36-1.374-3.81 0-1.035.283-1.993.736-2.846a68.577 68.577 0 0 1-3.89-5.164c-.205 1.55-.32 3.1-.32 4.641zm3.915 16.59c4.41 8.811 12.207 15.636 21.676 18.76a323.164 323.164 0 0 0 7.023-13.258 6.087 6.087 0 0 1-2.499-3.673c-7.07-1.979-12.996-5.653-17.772-9.66-.837.432-1.772.7-2.78.7-.687 0-1.336-.139-1.954-.35-2.215 3.606-3.303 6.352-3.694 7.481zm33.302 20.628a36.983 36.983 0 0 0 16.962-4.106c.46-1.395 1.581-5.14 2.32-10.204a6.105 6.105 0 0 1-2.276-2.738 84.625 84.625 0 0 1-6.072.218 94.41 94.41 0 0 1-6.87-.269c-1.058 1.806-2.996 3.032-5.24 3.032-.071 0-.137-.018-.208-.02a316.636 316.636 0 0 1-6.94 13.137 37.14 37.14 0 0 0 8.323.95zm21.185-6.642a37.469 37.469 0 0 0 11.811-13.389 52.613 52.613 0 0 1-4.338 1.227c-.299 3.083-2.868 5.502-6.033 5.502-.02 0-.042-.007-.063-.007a67.996 67.996 0 0 1-1.377 6.667zm6.863-15.473c3.558-.866 5.887-1.784 6.866-2.215a37.035 37.035 0 0 0 2.304-12.888 36.984 36.984 0 0 0-5.575-19.565c-1.36-.21-7.332-1-15.23-.198-.284 1.408-1.072 2.618-2.144 3.492a63.962 63.962 0 0 1 2.778 4.472c4.475 7.925 6.07 16.228 6.294 23.604a6.057 6.057 0 0 1 4.707 3.298z"/><path id="d" d="M1478.863 668.086h-53.416l3.27-2.988h47.625z"/><path id="e" d="M1425.45 671.64v-3.55h53.42v3.55z"/><path id="f" d="M1439.05 666.59v-20.45h28.87v20.45z"/><path id="g" d="M1439.05 652.49v-6.35h28.87v6.35z"/><path id="h" d="M1383.64 640.15V544.9h140.09v95.25z"/><path id="i" d="M1383.64 544.898h140.088v84.433h7.47v-84.433a7.471 7.471 0 0 0-7.47-7.471H1383.64a7.471 7.471 0 0 0-7.471 7.47v84.434h7.47z"/><path id="j" d="M1527.798 632.32H1376.17v10.82a7.471 7.471 0 0 0 7.47 7.471h140.088a7.47 7.47 0 0 0 7.47-7.47v-10.822z"/><path id="k" d="M1376.17 632.7v-7.3h155.03v7.3z"/><path id="l" d="M1387.84 565.33v-15.94h131.98v15.94z"/><path id="m" d="M1390.15 572.55v-1.68h17.56v1.68z"/><path id="n" d="M1410.38 572.55v-1.68h11.14v1.68z"/><path id="o" d="M1423.83 572.55v-1.68h19.67v1.68z"/><path id="p" d="M1445.87 572.55v-1.68h11.14v1.68z"/><path id="q" d="M1480.42 572.55v-1.68h19.67v1.68z"/><path id="r" d="M1502.46 572.55v-1.68h11.14v1.68z"/><path id="s" d="M1459.32 572.55v-1.68h10.21v1.68z"/><path id="t" d="M1471.89 572.55v-1.68h6.1v1.68z"/><path id="u" d="M1390.15 583.66v-1.68h17.56v1.68z"/><path id="v" d="M1410.38 583.66v-1.68h11.14v1.68z"/><path id="w" d="M1423.83 583.66v-1.68h19.67v1.68z"/><path id="x" d="M1445.87 583.66v-1.68h11.14v1.68z"/><path id="y" d="M1480.42 583.66v-1.68h19.67v1.68z"/><path id="z" d="M1502.46 583.66v-1.68h11.14v1.68z"/><path id="A" d="M1515.35 583.66v-1.68h4.48v1.68z"/><path id="B" d="M1459.32 583.66v-1.68h10.21v1.68z"/><path id="C" d="M1471.89 583.66v-1.68h6.1v1.68z"/><path id="D" d="M1390.15 587.12v-1.68h14.77v1.68z"/><path id="E" d="M1407.91 587.12v-1.68h8.79v1.68z"/><path id="F" d="M1418.48 587.12v-1.68h16.55v1.68z"/><path id="G" d="M1438.05 587.12v-1.68h7.96v1.68z"/><path id="H" d="M1466.45 587.12v-1.68h15.68v1.68z"/><path id="I" d="M1484.24 587.12v-1.68h9.37v1.68z"/><path id="J" d="M1495.45 587.12v-1.68h3.77v1.68z"/><path id="K" d="M1448.32 587.12v-1.68h8.59v1.68z"/><path id="L" d="M1459.32 587.12v-1.68h4.72v1.68z"/><path id="M" d="M1452.97 576.26v-1.68h11.14v1.68z"/><path id="N" d="M1409.88 576.26v-1.68h19.67v1.68z"/><path id="O" d="M1396.37 576.26v-1.68h11.14v1.68z"/><path id="P" d="M1390.15 576.26v-1.68h4.48v1.68z"/><path id="Q" d="M1440.45 576.26v-1.68h10.21v1.68z"/><path id="R" d="M1431.98 576.26v-1.68h6.1v1.68z"/><path id="S" d="M1485.49 579.96v-1.68h19.61v1.68z"/><path id="T" d="M1464.11 579.96v-1.68h18.12v1.68z"/><path id="U" d="M1449.35 579.96v-1.68h5.23v1.68z"/><path id="V" d="M1456.7 579.96v-1.68h5.23v1.68z"/><path id="W" d="M1404.25 579.96v-1.68h25.31v1.68z"/><path id="X" d="M1396.363 578.28h-6.216v1.68h11.798v-1.68z"/><path id="Y" d="M1431.98 579.96v-1.68h14.57v1.68z"/><path id="Z" d="M1390.15 590.48v-1.68h17.56v1.68z"/><path id="aa" d="M1410.38 590.48v-1.68h11.14v1.68z"/><path id="ab" d="M1423.83 590.48v-1.68h19.67v1.68z"/><path id="ac" d="M1445.87 590.48v-1.68h11.14v1.68z"/><path id="ad" d="M1459.32 590.48v-1.68h10.21v1.68z"/><path id="ae" d="M1390.15 604.68V603h14.77v1.68z"/><path id="af" d="M1407.91 604.68V603h8.79v1.68z"/><path id="ag" d="M1418.48 604.68V603h16.55v1.68z"/><path id="ah" d="M1438.06 604.68V603h7.96v1.68z"/><path id="ai" d="M1466.45 604.68V603h15.68v1.68z"/><path id="aj" d="M1484.24 604.68V603h9.37v1.68z"/><path id="ak" d="M1495.45 604.68V603h3.77v1.68z"/><path id="al" d="M1448.32 604.68V603h8.59v1.68z"/><path id="am" d="M1501.46 604.68V603h8.59v1.68z"/><path id="an" d="M1459.32 604.68V603h4.72v1.68z"/><path id="ao" d="M1488.45 593.81v-1.68h11.14v1.68z"/><path id="ap" d="M1466.48 593.81v-1.68h19.67v1.68z"/><path id="aq" d="M1452.97 593.81v-1.68h11.14v1.68z"/><path id="ar" d="M1409.88 593.81v-1.68h19.67v1.68z"/><path id="as" d="M1396.37 593.81v-1.68h11.14v1.68z"/><path id="at" d="M1390.15 593.81v-1.68h4.48v1.68z"/><path id="au" d="M1440.45 593.81v-1.68h10.21v1.68z"/><path id="av" d="M1431.98 593.81v-1.68h6.1v1.68z"/><path id="aw" d="M1464.11 597.52v-1.68h18.12v1.68z"/><path id="ax" d="M1449.35 597.52v-1.68h5.23v1.68z"/><path id="ay" d="M1456.7 597.52v-1.68h5.23v1.68z"/><path id="az" d="M1404.25 597.52v-1.68h25.31v1.68z"/><path id="aA" d="M1396.363 595.836h-6.216v1.681h11.798v-1.68z"/><path id="aB" d="M1431.98 597.52v-1.68h14.57v1.68z"/><path id="aC" d="M1390.15 607.67v-1.68h17.56v1.68z"/><path id="aD" d="M1410.38 607.67v-1.68h11.14v1.68z"/><path id="aE" d="M1423.83 607.67v-1.68h19.67v1.68z"/><path id="aF" d="M1445.87 607.67v-1.68h11.14v1.68z"/><path id="aG" d="M1459.32 607.67v-1.68h10.21v1.68z"/><path id="aH" d="M1471.89 607.67v-1.68h6.1v1.68z"/><path id="aI" d="M1515.35 618.78v-1.68h4.48v1.68z"/><path id="aJ" d="M1390.15 622.23v-1.68h14.77v1.68z"/><path id="aK" d="M1407.91 622.23v-1.68h8.79v1.68z"/><path id="aL" d="M1418.48 622.23v-1.68h16.55v1.68z"/><path id="aM" d="M1438.06 622.23v-1.68h7.96v1.68z"/><path id="aN" d="M1448.32 622.23v-1.68h8.59v1.68z"/><path id="aO" d="M1459.32 622.23v-1.68h4.72v1.68z"/><path id="aP" d="M1488.45 611.37v-1.68h11.14v1.68z"/><path id="aQ" d="M1466.48 611.37v-1.68h19.67v1.68z"/><path id="aR" d="M1452.97 611.37v-1.68h11.14v1.68z"/><path id="aS" d="M1409.88 611.37v-1.68h19.67v1.68z"/><path id="aT" d="M1396.37 611.37v-1.68h11.14v1.68z"/><path id="aU" d="M1390.15 611.37v-1.68h4.48v1.68z"/><path id="aV" d="M1440.45 611.37v-1.68h10.21v1.68z"/><path id="aW" d="M1431.98 611.37v-1.68h6.1v1.68z"/><path id="aX" d="M1464.11 615.07v-1.68h18.12v1.68z"/><path id="aY" d="M1449.35 615.07v-1.68h5.23v1.68z"/><path id="aZ" d="M1456.7 615.07v-1.68h5.23v1.68z"/><path id="ba" d="M1404.25 615.07v-1.68h25.31v1.68z"/><path id="bb" d="M1396.363 613.393h-6.216v1.681h11.798v-1.68z"/><path id="bc" d="M1431.98 615.07v-1.68h14.57v1.68z"/><path id="bd" d="M1517.36 561.382a.486.486 0 0 1-.158.67l-.28.172a.483.483 0 0 1-.668-.157l-2.095-3.382a.487.487 0 0 1 .158-.67l.278-.173a.488.488 0 0 1 .67.158z"/><path id="be" d="M1515.59 554.24a2.905 2.905 0 1 1-4.94 3.06 2.905 2.905 0 0 1 4.94-3.06z"/><path id="bf" d="M1514.881 558.615a3.35 3.35 0 0 1-4.607-1.084 3.35 3.35 0 0 1 1.084-4.606 3.352 3.352 0 0 1 4.607 1.083 3.352 3.352 0 0 1-1.084 4.607zm-3.06-4.942a2.47 2.47 0 0 0-.799 3.395 2.469 2.469 0 0 0 3.395.798 2.47 2.47 0 0 0 .8-3.395 2.47 2.47 0 0 0-3.396-.798z"/><path id="bg" d="M1411.365 559.062l-.398.01-.017-.216.064.027.157-.016-.016-.2-.432.005-.119-.156.007-.08-.556-.501-.135.107.793.97.113.039v.054h-.15l.037.119.976.043z"/><path id="bh" d="M1411.991 558.554l.066-.044v-.533l-.066-.027-.032-.167h-.098l-.062.168-.075.067-.565.306v.303l.19.249h.474l.061-.155.107-.096z"/><path id="bi" d="M1412.41 558.51l-.285.11.003.065h-.07v.393h.145l-.022-.251.114.04v.179l.118-.011z"/><path id="bj" d="M1414.733 560.58l-.29-.248-.022-.475-.192-.328-.173-.01-.07.597-.329-.024-.092-.056-.012-.236.175.035.147-.144-.314-.188h-.367l-.265.376h-.107v-.12l-.318.026-.5.57-.267.004-.297.205-.02.884-.179.173v.157l.862-.297.7-.028.26.569.794.028.766-.72.188-.431z"/><path id="bk" d="M1413.167 562.46l.281.03.227-.124.005-.172-.249-.026z"/><path id="bl" d="M1415.868 561.683l-.117.023-.003-.264-.215.013-.027.413-.189.13-.35.048-.56.4-.098.077v.134l.294-.045.712-.437.202-.132.214-.095.217-.123z"/><path id="bm" d="M1413.663 558.738l-.182.005.015-.188-.173-.103-.245.245.164.203.356.05.2.106.006.097h-.13l.006.2.43-.027.157-.168.167-.016v.308h.291v-.124h-.146l-.026-.375-.696-.316z"/><path id="bn" d="M1408.485 557.842l.067.183.245-.09.028-.255-.198-.039z"/><path id="bo" d="M1405.605 559.979l-.335-.043v.259l.12.14-.093.14-.134.156v.286l.183.177.167-.268.328-.48.158-.757h-.2z"/><path id="bp" d="M1412.48 559.181h-.109v.06l.085.025z"/><path id="bq" d="M1411.86 559.34v-.07h.13v.07z"/><path id="br" d="M1412.177 559.338h.08v-.063l.06-.009v-.06h-.13l-.052.06-.077.072v.063l.119-.012z"/><path id="bs" d="M1412.509 559.395h.129v-.066l.092.009-.013-.114-.147.022-.013.074-.165.018h-.008v.114h.125z"/><path id="bt" d="M1392.575 553.768l.026-.17-.175-.027c0 .01.013.197.027.197z"/><path id="bu" d="M1401.383 553.606l.013.105-.158.033-.021.223h.189l.25-.024.13-.154-.136-.053-.077-.087-.112-.183-.055-.259-.212.043-.06.091v.103l.103.07z"/><path id="bv" d="M1401.201 553.692l.011-.14-.124-.054-.175.04-.129.208v.135h.15z"/><path id="bw" d="M1410.154 557.047l-.582-.518-.464-.044-.263.098-.163.351-.087.651-.157.228-.16-.036-.488-.805.028-.297v-.218l-.222-.141-.955-.156-.441-.022-.384-.221-.028-.232h-.182l-.006.336c0 .017.83.409.83.409l.237.03.004.178-.222.146-.71.513-.34.022-.166-.167-.017-.271-.723-.877-.051.06.729 1.372.178.088.693-.146.129.06-.666.954-.606.578.134.237.066.642-.31.421-.143.172v.259l-.222.048-.173.308-.55.567h-.733v-.432l-.248-.334v-.519l-.19-.188-.015-.216.239-.458-.455-.804.054-.545-.41-.043-.151-.15h-.275l-.14.128h-.485l-.017.044h-.27l-.62-.707.005-.55.103-.038.038-.21h-.146l-.06-.221.719-.518v-.367l.35-.195.142.015h.29l.225-.122.729-.056v.372l.574.145.113.081h.106v-.202l.332-.033.315.235h.518l.186-.17v-.267l-.152-.113-.512.008-.17-.186-.033-.299-.173.095-.093.365-.25-.266-.011-.253-.242-.208-.09-.089h-.281l.09.25.337.189.059.062-.073.037.003.198-.164.069-.141-.031-.09-.125.23.013.062-.084-.507-.342-.038-.145-.207.186-.208-.043-.317.413-.063.162-.203.019-.301.001-.18-.084-.052-.357.064-.17.306-.067.333.067.04-.185-.14-.033.048-.288.336-.052.235-.331.242-.041.219.032h.08l-.044-.311-.266.107-.094-.232-.153-.022-.03-.16.126-.137.3-.117.169-.303.453-.232.81-.025.663.308-.113.097-.55.024.024.116.526.015.216-.169.075-.199.103-.027.062.18.412-.191.862.057-.072-.179.057-.218.243.06.08.126.049.364.216-.064-.005-.364.7-.314.926-.059.46.276h.996l.338.251.106.008.254-.257.28.01.373.055.234.119 2.509.129.687.291-.098.083-.508-.083-.008.099.185.128-.243.048v.146l-.501.032.38.356.066.292-.171.088-.534-.437v-.201l.129-.203-.096-.121-.583.388-.461-.04-.155-.114-.193.276.089.178.672.081.268.307-.066.089-.21-.211-.098.105.164.217-.035.407h-.431l-.022.329.364.22.127.168-.191.051-.68-.517h-.218l.008.42.493.518.039.375-.25.207-.565.203.056.21-.103.073-.115-.178.017-.138-.203-.064-.113.153.016.291.398.321.04.243-.241.161-.184-.02-.33-.373-.063.259.622.89-.04.129-.77-.736zm-6.711-4.506h-.102l-.474.33-.002.527-.278.142.028.093.445.004.256-.382-.011-.174-.183-.085v-.13l.32-.196zm1.28 2.378l-.02-.119-.244-.1-.014-.262-.09-.045-.05.076-.222.026-.101.032-.094.105v.287l.125-.017.42.017zm1.322.092l-.143-.105v-.162l-.332-.222.014-.119.264.014-.008-.129-.186-.078-.218.019-.054.124.01.25.27.198v.102l-.14.121-.02.087.268.019.032.051.17.013.073-.07z"/><path id="bx" d="M1397.57 554.386h-.187v.096h.045l.007.047.114-.009.071-.045.018-.089.093-.008.036-.075-.085-.017-.073.001z"/><path id="by" d="M1397.122 554.556l.135-.011.014-.094-.08-.064-.06.075z"/><path id="bz" d="M1399.063 558.99l.253.083-.049.226-.277.353-.08.78-.252.199-.371-.011-.125.216.091.405-.404.518-.13.237-.386.185-.253.039-.01.107.178.05-.022.117-.159.154.097.122.191.005-.01.149-.052.145-.015.119.283.239-.036.124-.388-.008-.384-.335-.298-.527.042-.507-.228-.302.091-.512-.135-.038v-1.111s-.377-.287-.399-.287c-.022 0-.199-.048-.199-.048l-.038-.21-.49-.615.047-.221.017-.361.34-.238-.049-.405-.497-.037-.387-.443-.276-.075-.177-.032.021-.162-.226-.032v.092l-.567-.141-.227-.35.092-.168-.358-.523-.063-.383h-.145l.048.372.25.383-.028.15-.21-.031-.259-.441v-.513l-.27-.13v-.572l.501-.61-.032-.364.141-.1-.167-.156.01-.275-.2-.178h-.555l-.09.097-.665-.005-.243-.205.19-.135h.484v-.09l-.226-.034.145-.113.32-.048.473-.324h.82l.448.135.151.086.135.01.2-.194.647-.005.145.08.274.06.022.108.437.016-.059-.14-.388-.011.091-.086-.03-.102h-.353l.383-.286h.367l.172.237.287.016.172-.167.13.065-.237.232-.314.005c.017 0 .028.226.028.226l.4-.01.042-.108.275-.016.033-.162-.163-.027.054-.146.124-.037.432.02-.238.217.038.167.25.038-.018-.302.237-.124.421-.05.61.27v.233l.194.048-.098.184h-.274l-.08.21-.63-.148.494-.263-.188-.161-.427.054-.037.039-.002-.001-.006.01-.123.127-.202.017.015.1.072.03-.003.034-.166.023-.01.096-.159.008-.029-.19-.283.086-.579.338.066.239.162.106.323.044v.368l.15-.024.137-.287.344-.11v-.441l.191-.144.463.109-.032.292h.124l.34-.167.015.382.248.152-.01.226-.238.08.017.076.285.13-.004.156-.084.007v-.004l-.36-.111-.017-.116.106-.072v-.105l-.114-.03-.028.098-.199.03-.02-.006v.01l-.069.01-.057-.112-.063-.03h-.143l-.064.054v.117l.121.04.12.017-.026.012-.11.12-.049-.06-.105-.028-.287.27.038.032-.425.234-.399.416-.028.185-.399.263-.198.199.02.399-.274-.128.002-.233h-.765l-.396.2-.173.318-.069.252.112.244.312.038.497-.332.043.165-.15.285.377.065.037.583.518.088.33-.38.398.08.141.197.383-.023.01-.113.21.102.24.372.408.005.151.265.022.323.453.173.571.006zm-3.1-4.386l-.148.02-.02.049-.097.008-.033.142h.207l.092-.094zm.05-.258h-.218v.213l.12-.022.098-.063zm.125.04l.079.066.078-.065-.098-.062zm-.072.218l.056.08h.207v-.125l-.247-.072h-.017zm-.163-.311l.134-.032-.134-.123zm-.602-.041l.146.04h.388v-.133h-.057v-.077h-.255l-.187.077zm-.024.417l.113.06.274-.383h-.213l-.15.16zm-.345-.995l.106.214.165-.052.053-.207-.154-.036zm-.599-.931h.32l.066-.09v-.1h-.232l-.012.049h-.141zm0 .25l.061.074.32-.02s.012-.142 0-.142-.154.024-.154.024z"/><path id="bA" d="M1548.628 660.474l-23.232-28.632-12.478 10.511 23.044 28.4a6.102 6.102 0 0 0 8.58.892l3.194-2.59a6.098 6.098 0 0 0 .892-8.58z"/><path id="bB" d="M1515.415 624.135c-.346-5.02-4.187-5.417-6.804-3.295l-3.192 2.59c-2.616 2.124-3.016 5.965 2.059 6.817l8.28 9.923 7.66-6.383z"/><path id="bC" d="M1515.248 574.44c12.683 15.63 10.293 38.583-5.336 51.265-15.63 12.683-38.581 10.294-51.265-5.337-12.682-15.63-10.294-38.58 5.336-51.263s38.581-10.294 51.265 5.336z"/><path id="bD" d="M1513.389 629.99c-17.967 14.58-44.447 11.825-59.028-6.142-14.58-17.97-11.823-44.45 6.145-59.028 17.968-14.58 44.447-11.825 59.027 6.144 14.58 17.967 11.824 44.447-6.144 59.027zm-45.928-56.6c-13.241 10.746-15.272 30.26-4.527 43.5 10.745 13.243 30.258 15.274 43.5 4.529 13.24-10.745 15.273-30.26 4.529-43.5-10.745-13.242-30.26-15.273-43.502-4.528z"/><path id="a" d="M1467.461 573.391c-13.241 10.745-15.272 30.259-4.527 43.5 10.745 13.242 30.259 15.273 43.5 4.527 13.241-10.744 15.273-30.259 4.529-43.499-6.104-7.522-15.038-11.427-24.044-11.427a30.784 30.784 0 0 0-19.458 6.899z"/><path id="bF" d="M1468.31 593.37v-3.53h41.26v3.53z"/><path id="bH" d="M1514.53 593.37v-3.53h23.37v3.53z"/><path id="bJ" d="M1448.01 585.6v-3.53h23.37v3.53z"/><path id="bL" d="M1502.08 578.12v-3.52h23.37v3.52z"/><path id="bN" d="M1474.46 570.28v-3.53h23.37v3.53z"/><path id="bP" d="M1445.458 589.843v3.525z"/><path id="bR" d="M1450.42 593.37v-3.53h12.8v3.53z"/><path id="bT" d="M1439 600.61v-3.52h32.89v3.52z"/><path id="bV" d="M1476.32 600.61v-3.52h19.66v3.52z"/><path id="bX" d="M1499.84 600.61v-3.52h7.91v3.52z"/><path id="bZ" d="M1478.95 585.6v-3.53h41.13v3.53z"/><path id="cb" d="M1445.458 604.141v3.526z"/><path id="cd" d="M1470.44 622.62v-3.53h19.66v3.53z"/><path id="cf" d="M1493.95 622.62v-3.53h7.91v3.53z"/><path id="ch" d="M1463.96 578.13v-3.53h19.66v3.53z"/><path id="cj" d="M1487.47 578.13v-3.53h7.91v3.53z"/><path id="cl" d="M1485.15 614.66v-3.53h23.37v3.53z"/><path id="cn" d="M1439.06 614.66v-3.53h41.26v3.53z"/><clipPath id="bE"><use xlink:href="#a"/></clipPath><clipPath id="bG"><use xlink:href="#a"/></clipPath><clipPath id="bI"><use xlink:href="#a"/></clipPath><clipPath id="bK"><use xlink:href="#a"/></clipPath><clipPath id="bM"><use xlink:href="#a"/></clipPath><clipPath id="bO"><use xlink:href="#a"/></clipPath><clipPath id="bQ"><use xlink:href="#a"/></clipPath><clipPath id="bS"><use xlink:href="#a"/></clipPath><clipPath id="bU"><use xlink:href="#a"/></clipPath><clipPath id="bW"><use xlink:href="#a"/></clipPath><clipPath id="bY"><use xlink:href="#a"/></clipPath><clipPath id="ca"><use xlink:href="#a"/></clipPath><clipPath id="cc"><use xlink:href="#a"/></clipPath><clipPath id="ce"><use xlink:href="#a"/></clipPath><clipPath id="cg"><use xlink:href="#a"/></clipPath><clipPath id="ci"><use xlink:href="#a"/></clipPath><clipPath id="ck"><use xlink:href="#a"/></clipPath><clipPath id="cm"><use xlink:href="#a"/></clipPath><clipPath id="co"><use xlink:href="#a"/></clipPath></defs><use fill="#232323" xlink:href="#b" opacity=".1" transform="translate(-1343 -506)"/><use fill="#232323" xlink:href="#c" opacity=".1" transform="translate(-1343 -506)"/><use fill="#e3e4e5" xlink:href="#d" transform="translate(-1343 -506)"/><use fill="#fff" xlink:href="#e" transform="translate(-1343 -506)"/><use fill="#eeefef" xlink:href="#f" transform="translate(-1343 -506)"/><use fill="#ced0d1" xlink:href="#g" transform="translate(-1343 -506)"/><use fill="#fff" xlink:href="#h" transform="translate(-1343 -506)"/><use fill="#b3d6ff" xlink:href="#i" transform="translate(-1343 -506)"/><use fill="#eeefef" xlink:href="#j" transform="translate(-1343 -506)"/><use fill="#b3d6ff" xlink:href="#k" transform="translate(-1343 -506)"/><use fill="#e3e4e5" xlink:href="#l" transform="translate(-1343 -506)"/><use fill="#ced0d1" xlink:href="#m" transform="translate(-1343 -506)"/><use fill="#ced0d1" xlink:href="#n" transform="translate(-1343 -506)"/><use fill="#ced0d1" xlink:href="#o" transform="translate(-1343 -506)"/><use fill="#ced0d1" xlink:href="#p" transform="translate(-1343 -506)"/><use fill="#ced0d1" xlink:href="#q" transform="translate(-1343 -506)"/><use fill="#ced0d1" xlink:href="#r" transform="translate(-1343 -506)"/><use fill="#ced0d1" xlink:href="#s" transform="translate(-1343 -506)"/><use fill="#ced0d1" xlink:href="#t" transform="translate(-1343 -506)"/><use fill="#ced0d1" xlink:href="#u" transform="translate(-1343 -506)"/><use fill="#ced0d1" xlink:href="#v" transform="translate(-1343 -506)"/><use fill="#08b4b9" xlink:href="#w" transform="translate(-1343 -506)"/><use fill="#ced0d1" xlink:href="#x" transform="translate(-1343 -506)"/><use fill="#ced0d1" xlink:href="#y" transform="translate(-1343 -506)"/><use fill="#ced0d1" xlink:href="#z" transform="translate(-1343 -506)"/><use fill="#ced0d1" xlink:href="#A" transform="translate(-1343 -506)"/><use fill="#ced0d1" xlink:href="#B" transform="translate(-1343 -506)"/><use fill="#ced0d1" xlink:href="#C" transform="translate(-1343 -506)"/><use fill="#ced0d1" xlink:href="#D" transform="translate(-1343 -506)"/><use fill="#ced0d1" xlink:href="#E" transform="translate(-1343 -506)"/><use fill="#ced0d1" xlink:href="#F" transform="translate(-1343 -506)"/><use fill="#ced0d1" xlink:href="#G" transform="translate(-1343 -506)"/><use fill="#ced0d1" xlink:href="#H" transform="translate(-1343 -506)"/><use fill="#ced0d1" xlink:href="#I" transform="translate(-1343 -506)"/><use fill="#08b4b9" xlink:href="#J" transform="translate(-1343 -506)"/><use fill="#ced0d1" xlink:href="#K" transform="translate(-1343 -506)"/><use fill="#ced0d1" xlink:href="#L" transform="translate(-1343 -506)"/><use fill="#ced0d1" xlink:href="#M" transform="translate(-1343 -506)"/><use fill="#ced0d1" xlink:href="#N" transform="translate(-1343 -506)"/><use fill="#08b4b9" xlink:href="#O" transform="translate(-1343 -506)"/><use fill="#ced0d1" xlink:href="#P" transform="translate(-1343 -506)"/><use fill="#ced0d1" xlink:href="#Q" transform="translate(-1343 -506)"/><use fill="#ced0d1" xlink:href="#R" transform="translate(-1343 -506)"/><use fill="#ced0d1" xlink:href="#S" transform="translate(-1343 -506)"/><use fill="#ced0d1" xlink:href="#T" transform="translate(-1343 -506)"/><use fill="#ced0d1" xlink:href="#U" transform="translate(-1343 -506)"/><use fill="#ced0d1" xlink:href="#V" transform="translate(-1343 -506)"/><use fill="#ced0d1" xlink:href="#W" transform="translate(-1343 -506)"/><use fill="#ced0d1" xlink:href="#X" transform="translate(-1343 -506)"/><use fill="#ced0d1" xlink:href="#Y" transform="translate(-1343 -506)"/><use fill="#ced0d1" xlink:href="#Z" transform="translate(-1343 -506)"/><use fill="#ced0d1" xlink:href="#aa" transform="translate(-1343 -506)"/><use fill="#ced0d1" xlink:href="#ab" transform="translate(-1343 -506)"/><use fill="#ced0d1" xlink:href="#ac" transform="translate(-1343 -506)"/><use fill="#ced0d1" xlink:href="#ad" transform="translate(-1343 -506)"/><use fill="#ced0d1" xlink:href="#ae" transform="translate(-1343 -506)"/><use fill="#08b4b9" xlink:href="#af" transform="translate(-1343 -506)"/><use fill="#ced0d1" xlink:href="#ag" transform="translate(-1343 -506)"/><use fill="#08b4b9" xlink:href="#ah" transform="translate(-1343 -506)"/><use fill="#ced0d1" xlink:href="#ai" transform="translate(-1343 -506)"/><use fill="#08b4b9" xlink:href="#aj" transform="translate(-1343 -506)"/><use fill="#ced0d1" xlink:href="#ak" transform="translate(-1343 -506)"/><use fill="#ced0d1" xlink:href="#al" transform="translate(-1343 -506)"/><use fill="#ced0d1" xlink:href="#am" transform="translate(-1343 -506)"/><use fill="#ced0d1" xlink:href="#an" transform="translate(-1343 -506)"/><use fill="#ced0d1" xlink:href="#ao" transform="translate(-1343 -506)"/><use fill="#08b4b9" xlink:href="#ap" transform="translate(-1343 -506)"/><use fill="#ced0d1" xlink:href="#aq" transform="translate(-1343 -506)"/><use fill="#08b4b9" xlink:href="#ar" transform="translate(-1343 -506)"/><use fill="#ced0d1" xlink:href="#as" transform="translate(-1343 -506)"/><use fill="#ced0d1" xlink:href="#at" transform="translate(-1343 -506)"/><use fill="#ced0d1" xlink:href="#au" transform="translate(-1343 -506)"/><use fill="#ced0d1" xlink:href="#av" transform="translate(-1343 -506)"/><use fill="#ced0d1" xlink:href="#aw" transform="translate(-1343 -506)"/><use fill="#ced0d1" xlink:href="#ax" transform="translate(-1343 -506)"/><use fill="#ced0d1" xlink:href="#ay" transform="translate(-1343 -506)"/><use fill="#ced0d1" xlink:href="#az" transform="translate(-1343 -506)"/><use fill="#ced0d1" xlink:href="#aA" transform="translate(-1343 -506)"/><use fill="#ced0d1" xlink:href="#aB" transform="translate(-1343 -506)"/><use fill="#ced0d1" xlink:href="#aC" transform="translate(-1343 -506)"/><use fill="#ced0d1" xlink:href="#aD" transform="translate(-1343 -506)"/><use fill="#ced0d1" xlink:href="#aE" transform="translate(-1343 -506)"/><use fill="#ced0d1" xlink:href="#aF" transform="translate(-1343 -506)"/><use fill="#ced0d1" xlink:href="#aG" transform="translate(-1343 -506)"/><use fill="#ced0d1" xlink:href="#aH" transform="translate(-1343 -506)"/><use fill="#ced0d1" xlink:href="#aI" transform="translate(-1343 -506)"/><use fill="#ced0d1" xlink:href="#aJ" transform="translate(-1343 -506)"/><use fill="#08b4b9" xlink:href="#aK" transform="translate(-1343 -506)"/><use fill="#ced0d1" xlink:href="#aL" transform="translate(-1343 -506)"/><use fill="#ced0d1" xlink:href="#aM" transform="translate(-1343 -506)"/><use fill="#ced0d1" xlink:href="#aN" transform="translate(-1343 -506)"/><use fill="#ced0d1" xlink:href="#aO" transform="translate(-1343 -506)"/><use fill="#ced0d1" xlink:href="#aP" transform="translate(-1343 -506)"/><use fill="#ced0d1" xlink:href="#aQ" transform="translate(-1343 -506)"/><use fill="#ced0d1" xlink:href="#aR" transform="translate(-1343 -506)"/><use fill="#ced0d1" xlink:href="#aS" transform="translate(-1343 -506)"/><use fill="#08b4b9" xlink:href="#aT" transform="translate(-1343 -506)"/><use fill="#ced0d1" xlink:href="#aU" transform="translate(-1343 -506)"/><use fill="#ced0d1" xlink:href="#aV" transform="translate(-1343 -506)"/><use fill="#ced0d1" xlink:href="#aW" transform="translate(-1343 -506)"/><use fill="#ced0d1" xlink:href="#aX" transform="translate(-1343 -506)"/><use fill="#08b4b9" xlink:href="#aY" transform="translate(-1343 -506)"/><use fill="#ced0d1" xlink:href="#aZ" transform="translate(-1343 -506)"/><use fill="#ced0d1" xlink:href="#ba" transform="translate(-1343 -506)"/><use fill="#ced0d1" xlink:href="#bb" transform="translate(-1343 -506)"/><use fill="#ced0d1" xlink:href="#bc" transform="translate(-1343 -506)"/><use fill="#151414" xlink:href="#bd" transform="translate(-1343 -506)"/><use fill="#fff" xlink:href="#be" opacity=".1" transform="translate(-1343 -506)"/><use fill="#232323" xlink:href="#bf" transform="translate(-1343 -506)"/><g opacity=".15"><use fill="#231f20" xlink:href="#bg" opacity=".15" transform="translate(-1343 -506)"/><use fill="#231f20" xlink:href="#bh" opacity=".15" transform="translate(-1343 -506)"/><use fill="#231f20" xlink:href="#bi" opacity=".15" transform="translate(-1343 -506)"/><use fill="#231f20" xlink:href="#bj" opacity=".15" transform="translate(-1343 -506)"/><use fill="#231f20" xlink:href="#bk" opacity=".15" transform="translate(-1343 -506)"/><use fill="#231f20" xlink:href="#bl" opacity=".15" transform="translate(-1343 -506)"/><use fill="#231f20" xlink:href="#bm" opacity=".15" transform="translate(-1343 -506)"/><use fill="#231f20" xlink:href="#bn" opacity=".15" transform="translate(-1343 -506)"/><use fill="#231f20" xlink:href="#bo" opacity=".15" transform="translate(-1343 -506)"/><use fill="#231f20" xlink:href="#bp" opacity=".15" transform="translate(-1343 -506)"/><use fill="#231f20" xlink:href="#bq" opacity=".15" transform="translate(-1343 -506)"/><use fill="#231f20" xlink:href="#br" opacity=".15" transform="translate(-1343 -506)"/><use fill="#231f20" xlink:href="#bs" opacity=".15" transform="translate(-1343 -506)"/><use fill="#231f20" xlink:href="#bt" opacity=".15" transform="translate(-1343 -506)"/><use fill="#231f20" xlink:href="#bu" opacity=".15" transform="translate(-1343 -506)"/><use fill="#231f20" xlink:href="#bv" opacity=".15" transform="translate(-1343 -506)"/><use fill="#231f20" xlink:href="#bw" opacity=".15" transform="translate(-1343 -506)"/><use fill="#231f20" xlink:href="#bx" opacity=".15" transform="translate(-1343 -506)"/><use fill="#231f20" xlink:href="#by" opacity=".15" transform="translate(-1343 -506)"/><use fill="#231f20" xlink:href="#bz" opacity=".15" transform="translate(-1343 -506)"/></g><use fill="#b3d6ff" xlink:href="#bA" transform="translate(-1343 -506)"/><use fill="#58595b" xlink:href="#bB" transform="translate(-1343 -506)"/><use fill="#fff" xlink:href="#bC" transform="translate(-1343 -506)"/><use fill="#9ac7f4" xlink:href="#bD" transform="translate(-1343 -506)"/><g clip-path="url(#bE)" transform="translate(-1343 -506)"><use fill="#ced0d1" xlink:href="#bF"/></g><g clip-path="url(#bG)" transform="translate(-1343 -506)"><use fill="#ced0d1" xlink:href="#bH"/></g><g clip-path="url(#bI)" transform="translate(-1343 -506)"><use fill="#ced0d1" xlink:href="#bJ"/></g><g clip-path="url(#bK)" transform="translate(-1343 -506)"><use fill="#ced0d1" xlink:href="#bL"/></g><g clip-path="url(#bM)" transform="translate(-1343 -506)"><use fill="#ced0d1" xlink:href="#bN"/></g><g clip-path="url(#bO)" transform="translate(-1343 -506)"><use fill="#ced0d1" xlink:href="#bP"/></g><g clip-path="url(#bQ)" transform="translate(-1343 -506)"><use fill="#ced0d1" xlink:href="#bR"/></g><g clip-path="url(#bS)" transform="translate(-1343 -506)"><use fill="#ced0d1" xlink:href="#bT"/></g><g clip-path="url(#bU)" transform="translate(-1343 -506)"><use fill="#ced0d1" xlink:href="#bV"/></g><g clip-path="url(#bW)" transform="translate(-1343 -506)"><use fill="#08b4b9" xlink:href="#bX"/></g><g clip-path="url(#bY)" transform="translate(-1343 -506)"><use fill="#ced0d1" xlink:href="#bZ"/></g><g clip-path="url(#ca)" transform="translate(-1343 -506)"><use fill="#ced0d1" xlink:href="#cb"/></g><g clip-path="url(#cc)" transform="translate(-1343 -506)"><use fill="#08b4b9" xlink:href="#cd"/></g><g clip-path="url(#ce)" transform="translate(-1343 -506)"><use fill="#ced0d1" xlink:href="#cf"/></g><g clip-path="url(#cg)" transform="translate(-1343 -506)"><use fill="#08b4b9" xlink:href="#ch"/></g><g clip-path="url(#ci)" transform="translate(-1343 -506)"><use fill="#ced0d1" xlink:href="#cj"/></g><g clip-path="url(#ck)" transform="translate(-1343 -506)"><use fill="#ced0d1" xlink:href="#cl"/></g><g clip-path="url(#cm)" transform="translate(-1343 -506)"><use fill="#08b4b9" xlink:href="#cn"/></g><g clip-path="url(#co)" transform="translate(-1343 -506)"><use fill="#ced0d1" xlink:href="#bN"/></g></svg>