<svg data-name="Layer 1" xmlns="http://www.w3.org/2000/svg" viewBox="0 0 1 902"><defs><linearGradient id="a" x1="369.6" y1="-82.1" x2="-81.6" y2="369.1" gradientUnits="userSpaceOnUse"><stop offset=".01" stop-color="#5392e6"/><stop offset="1" stop-color="#a6bf46"/></linearGradient></defs><path d="M144 370.75a.5.5 0 0 0-.5.5v5a.5.5 0 0 0 1 0v-5a.5.5 0 0 0-.5-.5zm0-70.07a.5.5 0 0 0-.5.5v5a.5.5 0 0 0 1 0v-5a.5.5 0 0 0-.5-.5zm0 20a.5.5 0 0 0-.5.5v5a.5.5 0 0 0 1 0v-5a.5.5 0 0 0-.5-.48zm0-40.05a.5.5 0 0 0-.5.5v5a.5.5 0 0 0 1 0v-5a.5.5 0 0 0-.5-.48zm0 10a.5.5 0 0 0-.5.5v5a.5.5 0 0 0 1 0v-5a.5.5 0 0 0-.5-.46zm0 50.05a.5.5 0 0 0-.5.5v5a.5.5 0 0 0 1 0v-5a.5.5 0 0 0-.5-.46zm0 10a.5.5 0 0 0-.5.5v5a.5.5 0 0 0 1 0v-5a.5.5 0 0 0-.5-.45zm0 10a.5.5 0 0 0-.5.5v5a.5.5 0 0 0 1 0v-5a.5.5 0 0 0-.5-.44zm0-90.1a.5.5 0 0 0-.5.5v5a.5.5 0 0 0 1 0v-5a.5.5 0 0 0-.5-.44zm0 60.07a.5.5 0 0 0-.5.5v5a.5.5 0 0 0 1 0v-5a.5.5 0 0 0-.5-.44zm0-20a.5.5 0 0 0-.5.5v5a.5.5 0 0 0 1 0v-5a.5.5 0 0 0-.5-.46zm0-110.13a.5.5 0 0 0-.5.5v5a.5.5 0 0 0 1 0v-5a.5.5 0 0 0-.5-.46zm0-20a.5.5 0 0 0-.5.5v5a.5.5 0 0 0 1 0v-5a.5.5 0 0 0-.5-.48zm0 10a.5.5 0 0 0-.5.5v5a.5.5 0 0 0 1 0v-5a.5.5 0 0 0-.5-.47zm0-20a.5.5 0 0 0-.5.5v5a.5.5 0 0 0 1 0v-5a.5.5 0 0 0-.5-.49zm0-10a.5.5 0 0 0-.5.5v5a.5.5 0 0 0 1 0v-5a.5.5 0 0 0-.5-.5zm0 50.06a.5.5 0 0 0-.5.5v5a.5.5 0 1 0 1 0v-5a.5.5 0 0 0-.5-.5zm0 30a.5.5 0 0 0-.5.5v5a.5.5 0 0 0 1 0v-5a.5.5 0 0 0-.5-.47zm0 10a.5.5 0 0 0-.5.5v5a.5.5 0 0 0 1 0v-5a.5.5 0 0 0-.5-.46zm0-20a.5.5 0 0 0-.5.5v5a.5.5 0 1 0 1 0v-5a.5.5 0 0 0-.5-.48zm0 30a.5.5 0 0 0-.5.5v5a.5.5 0 0 0 1 0v-5a.5.5 0 0 0-.5-.45zm0-40a.5.5 0 0 0-.5.5v5a.5.5 0 1 0 1 0v-5a.5.5 0 0 0-.5-.49zm0 270.3a.5.5 0 0 0-.5.5v5a.5.5 0 0 0 1 0v-5a.5.5 0 0 0-.5-.49zm0 50.12a.5.5 0 0 0-.5.5v5a.5.5 0 0 0 1 0v-5a.5.5 0 0 0-.5-.5zm0-20a.5.5 0 0 0-.5.5v5a.5.5 0 0 0 1 0v-5a.5.5 0 0 0-.5-.58zm0 10a.5.5 0 0 0-.5.5v5a.5.5 0 0 0 1 0v-5a.5.5 0 0 0-.5-.57zm0-20a.5.5 0 0 0-.5.5v5a.5.5 0 0 0 1 0v-5a.5.5 0 0 0-.5-.59zm0-360.4a.5.5 0 0 0-.5.5v5a.5.5 0 0 0 1 0v-5a.5.5 0 0 0-.5-.59zm0 350.39a.5.5 0 0 0-.5.5v5a.5.5 0 1 0 1 0v-5a.5.5 0 0 0-.5-.59zm0 90.1a.5.5 0 0 0-.5.5V594a.5.5 0 0 0 1 0v-2.5a.5.5 0 0 0-.5-.5zm0-10a.5.5 0 0 0-.5.5v5a.5.5 0 0 0 1 0v-5a.5.5 0 0 0-.5-.59zm0-20a.5.5 0 0 0-.5.5v5a.5.5 0 0 0 1 0v-5a.5.5 0 0 0-.5-.59zm0-10a.5.5 0 0 0-.5.5v5a.5.5 0 0 0 1 0v-5a.5.5 0 0 0-.5-.59zm0 20a.5.5 0 0 0-.5.5v5a.5.5 0 0 0 1 0v-5a.5.5 0 0 0-.5-.59zm0-160.18a.5.5 0 0 0-.5.5v5a.5.5 0 0 0 1 0v-5a.5.5 0 0 0-.5-.61zm0-30a.5.5 0 0 0-.5.5v5a.5.5 0 0 0 1 0v-5a.5.5 0 0 0-.5-.64zm0 50.05a.5.5 0 0 0-.5.5v5a.5.5 0 0 0 1 0v-5a.5.5 0 0 0-.5-.64zm0-10a.5.5 0 0 0-.5.5v5a.5.5 0 0 0 1 0v-5a.5.5 0 0 0-.5-.65zm0 60.07a.5.5 0 0 0-.5.5v5a.5.5 0 0 0 1 0v-5a.5.5 0 0 0-.5-.65zm0-90.1a.5.5 0 0 0-.5.5v5a.5.5 0 0 0 1 0v-5a.5.5 0 0 0-.5-.65zm0 10a.5.5 0 0 0-.5.5v5a.5.5 0 0 0 1 0v-5a.5.5 0 0 0-.5-.64zm0 60.07a.5.5 0 0 0-.5.5v5a.5.5 0 0 0 1 0v-5a.5.5 0 0 0-.5-.64zm0 10a.5.5 0 0 0-.5.5v5a.5.5 0 0 0 1 0v-5a.5.5 0 0 0-.5-.63zm0-30a.5.5 0 0 0-.5.5v5a.5.5 0 0 0 1 0v-5a.5.5 0 0 0-.5-.67zm0 10a.5.5 0 0 0-.5.5v5a.5.5 0 0 0 1 0v-5a.5.5 0 0 0-.5-.66zm0-550.61a.5.5 0 0 0-.5.5v5a.5.5 0 0 0 .5.5.5.5 0 0 0 .5-.5v-5a.5.5 0 0 0-.5-.66zm0-70.08a.5.5 0 0 0-.5.5v5a.5.5 0 0 0 .5.5.5.5 0 0 0 .5-.5v-5a.5.5 0 0 0-.5-.66zm0-10a.5.5 0 0 0-.5.5v5a.5.5 0 0 0 .5.5.5.5 0 0 0 .5-.5v-5a.5.5 0 0 0-.5-.67zm0 20a.5.5 0 0 0-.5.5v5a.5.5 0 0 0 .5.5.5.5 0 0 0 .5-.5v-5a.5.5 0 0 0-.5-.65zm0-50a.5.5 0 0 0-.5.5v5a.5.5 0 0 0 .5.5.5.5 0 0 0 .5-.5v-5a.5.5 0 0 0-.5-.7zm0 20a.5.5 0 0 0-.5.5v5a.5.5 0 0 0 .5.5.5.5 0 0 0 .5-.5v-5a.5.5 0 0 0-.5-.68zm0-10a.5.5 0 0 0-.5.5v5a.5.5 0 0 0 .5.5.5.5 0 0 0 .5-.5v-5a.5.5 0 0 0-.5-.69zm0 80.09a.5.5 0 0 0-.5.5v5a.5.5 0 0 0 .5.5.5.5 0 0 0 .5-.5v-5a.5.5 0 0 0-.5-.69zm0-30a.5.5 0 0 0-.5.5v5a.5.5 0 0 0 .5.5.5.5 0 0 0 .5-.5v-5a.5.5 0 0 0-.5-.73zm0 40.05a.5.5 0 0 0-.5.5v5a.5.5 0 0 0 .5.5.5.5 0 0 0 .5-.5v-5a.5.5 0 0 0-.5-.73zm0-30a.5.5 0 0 0-.5.5v5a.5.5 0 0 0 .5.5.5.5 0 0 0 .5-.5v-5a.5.5 0 0 0-.5-.77zm0 50.06a.5.5 0 0 0-.5.5v5a.5.5 0 0 0 .5.5.5.5 0 0 0 .5-.5v-5a.5.5 0 0 0-.5-.77zm0-40a.5.5 0 0 0-.5.5v5a.5.5 0 0 0 .5.5.5.5 0 0 0 .5-.5v-5a.5.5 0 0 0-.5-.81zM144-290a.5.5 0 0 0-.5.5v5a.5.5 0 0 0 .5.5.5.5 0 0 0 .5-.5v-5a.5.5 0 0 0-.5-.5zm0 70.08a.5.5 0 0 0-.5.5v5a.5.5 0 0 0 .5.5.5.5 0 0 0 .5-.5v-5a.5.5 0 0 0-.5-.48zm0-80.08a.5.5 0 0 0-.5.5v5a.5.5 0 0 0 .5.5.5.5 0 0 0 .5-.5v-5a.5.5 0 0 0-.5-.5zm0-7.51a.5.5 0 0 0-.5.5v2.5a.5.5 0 0 0 .5.5.5.5 0 0 0 .5-.5V-307a.5.5 0 0 0-.5-.5zm0 37.51a.5.5 0 0 0-.5.5v5a.5.5 0 0 0 .5.5.5.5 0 0 0 .5-.5v-5a.5.5 0 0 0-.5-.5zm0-10a.5.5 0 0 0-.5.5v5a.5.5 0 0 0 .5.5.5.5 0 0 0 .5-.5v-5a.5.5 0 0 0-.5-.5zm0 40a.5.5 0 0 0-.5.5v5a.5.5 0 0 0 .5.5.5.5 0 0 0 .5-.5v-5a.5.5 0 0 0-.5-.43zm0 10a.5.5 0 0 0-.5.5v5a.5.5 0 0 0 .5.5.5.5 0 0 0 .5-.5v-5a.5.5 0 0 0-.5-.42zm0-20a.5.5 0 0 0-.5.5v5a.5.5 0 0 0 .5.5.5.5 0 0 0 .5-.5v-5a.5.5 0 0 0-.5-.44zm0-10a.5.5 0 0 0-.5.5v5a.5.5 0 0 0 .5.5.5.5 0 0 0 .5-.5v-5a.5.5 0 0 0-.5-.45zm0 400.45a.5.5 0 0 0-.5.5v5a.5.5 0 0 0 1 0v-5a.5.5 0 0 0-.5-.45zm0-80.09a.5.5 0 0 0-.5.5v5a.5.5 0 0 0 1 0v-5a.5.5 0 0 0-.5-.45zm0 20a.5.5 0 0 0-.5.5v5a.5.5 0 0 0 1 0v-5a.5.5 0 0 0-.5-.43zm0-10a.5.5 0 0 0-.5.5v5a.5.5 0 1 0 1 0v-5a.5.5 0 0 0-.5-.44zm0-20a.5.5 0 0 0-.5.5v5a.5.5 0 1 0 1 0v-5a.5.5 0 0 0-.5-.46zm0-20a.5.5 0 0 0-.5.5v5a.5.5 0 0 0 1 0v-5a.5.5 0 0 0-.5-.49zm0 10a.5.5 0 0 0-.5.5v5a.5.5 0 0 0 1 0v-5a.5.5 0 0 0-.5-.47zm0 90.1a.5.5 0 0 0-.5.5v5a.5.5 0 0 0 1 0v-5a.5.5 0 0 0-.5-.47zm0-40.05a.5.5 0 0 0-.5.5v5a.5.5 0 0 0 1 0v-5a.5.5 0 0 0-.5-.47zm0 30a.5.5 0 0 0-.5.5v5a.5.5 0 1 0 1 0v-5a.5.5 0 0 0-.5-.44zm0-200.22a.5.5 0 0 0-.5.5v5a.5.5 0 0 0 .5.5.5.5 0 0 0 .5-.5v-5a.5.5 0 0 0-.5-.44zm0 190.21a.5.5 0 0 0-.5.5v5a.5.5 0 1 0 1 0v-5a.5.5 0 0 0-.5-.44zm0-10a.5.5 0 0 0-.5.5v5a.5.5 0 0 0 1 0v-5a.5.5 0 0 0-.5-.45zm0-150.16a.5.5 0 0 0-.5.5v5a.5.5 0 0 0 .5.5.5.5 0 0 0 .5-.5v-5a.5.5 0 0 0-.5-.45zm0 10a.5.5 0 0 0-.5.5v5a.5.5 0 0 0 .5.5.5.5 0 0 0 .5-.5v-5a.5.5 0 0 0-.5-.44zm0 10a.5.5 0 0 0-.5.5v5a.5.5 0 0 0 .5.5.5.5 0 0 0 .5-.5v-5a.5.5 0 0 0-.5-.43zm0-30a.5.5 0 0 0-.5.5v5a.5.5 0 0 0 .5.5.5.5 0 0 0 .5-.5v-5a.5.5 0 0 0-.5-.47zm0-10a.5.5 0 0 0-.5.5v5a.5.5 0 0 0 .5.5.5.5 0 0 0 .5-.5v-5a.5.5 0 0 0-.5-.48zm0 80.09a.5.5 0 0 0-.5.5v5a.5.5 0 1 0 1 0v-5a.5.5 0 0 0-.5-.48zm0-10a.5.5 0 0 0-.5.5v5a.5.5 0 0 0 1 0v-5a.5.5 0 0 0-.5-.49zm0-20a.5.5 0 0 0-.5.5v5a.5.5 0 0 0 .5.5.5.5 0 0 0 .5-.5v-5a.5.5 0 0 0-.5-.51zm0 40a.5.5 0 0 0-.5.5v5a.5.5 0 1 0 1 0v-5a.5.5 0 0 0-.5-.47zm0-30a.5.5 0 0 0-.5.5v5a.5.5 0 0 0 .5.5.5.5 0 0 0 .5-.5v-5a.5.5 0 0 0-.5-.5z" transform="translate(-143.5 307.5)" fill="url(#a)" opacity=".46"/></svg>