<?xml version="1.0" encoding="UTF-8"?>
<svg width="43px" height="45px" viewBox="0 0 43 45" version="1.1" xmlns="http://www.w3.org/2000/svg" xmlns:xlink="http://www.w3.org/1999/xlink">
    <!-- Generator: Sketch 48.2 (47327) - http://www.bohemiancoding.com/sketch -->
    <title>phone-icon</title>
    <desc>Created with Sketch.</desc>
    <defs>
        <path d="M4.68678689,0.330681818 L0.729836066,1.29681818 C0.552885246,1.33977273 0.448229508,1.50613636 0.49504918,1.66977273 L0.576983607,1.94727273 C0.625180328,2.11090909 0.808327869,2.20636364 0.985967213,2.16340909 L4.94085246,1.19590909 C5.12055738,1.155 5.22521311,0.986590909 5.17770492,0.824318182 L5.09508197,0.543409091 C5.05583607,0.409090909 4.9222623,0.319772727 4.77491803,0.319772727 C4.746,0.319772727 4.71708197,0.323181818 4.68678689,0.330681818 Z" id="path-1"></path>
        <path d="M17.3067541,0.3525 L3.05429508,4.1175 C0.877180328,4.69363636 -0.419311475,6.90886364 0.163180328,9.05590909 L8.78695082,40.7877273 C9.27511475,42.585 10.9303279,43.7747727 12.7370164,43.7747727 C13.0860984,43.7747727 13.4420656,43.7311364 13.7939016,43.6384091 L28.0470492,39.8720455 C29.1032459,39.5925 29.9845574,38.9256818 30.5298689,37.9936364 C31.0751803,37.0595455 31.2211475,35.9740909 30.9381639,34.9329545 L22.316459,3.20318182 C22.0334754,2.16204545 21.3559672,1.29136364 20.4099344,0.753409091 C19.7792459,0.396136364 19.0803934,0.213409091 18.3719016,0.213409091 C18.016623,0.213409091 17.6592787,0.259772727 17.3067541,0.3525 Z M2.61914754,8.40613636 C2.39881967,7.59409091 2.8897377,6.75681818 3.71321311,6.53795455 L17.9649836,2.77431818 C18.0985574,2.73681818 18.2341967,2.72045455 18.3698361,2.72045455 C18.6376721,2.72045455 18.9020656,2.79068182 19.1396066,2.92568182 C19.4983279,3.13022727 19.7523934,3.45681818 19.8598033,3.85159091 L20.6385246,6.71863636 L3.39855738,11.2745455 L2.61914754,8.40613636 Z M3.83714754,12.8904545 L21.0778033,8.33454545 L27.160918,30.7152273 L9.91957377,35.2704545 L3.83714754,12.8904545 Z M11.2422295,40.1379545 L10.359541,36.8856818 L27.5981311,32.3290909 L28.4828852,35.5827273 C28.5896066,35.9754545 28.5352131,36.3859091 28.3286557,36.7411364 C28.1220984,37.0929545 27.7881639,37.3452273 27.3895082,37.4502273 L13.1370492,41.2172727 C13.0027869,41.2534091 12.8678361,41.2704545 12.7342623,41.2704545 C12.0533115,41.2711364 11.4267541,40.8184091 11.2422295,40.1379545 Z" id="path-3"></path>
        <path d="M1.302,0.270681818 C0.550131148,0.469772727 0.101901639,1.23272727 0.303639344,1.97386364 C0.506754098,2.71431818 1.27996721,3.15681818 2.03183607,2.95568182 C2.78577049,2.75863636 3.23055738,1.99636364 3.03088525,1.25386364 C2.8615082,0.633409091 2.28934426,0.224318182 1.66554098,0.224318182 C1.5457377,0.224318182 1.42386885,0.238636364 1.302,0.270681818 Z" id="path-5"></path>
        <path d="M3.83852459,0.828409091 L0.74842623,3.69545455 C0.407606557,4.00977273 0.365606557,4.56886364 0.654786885,4.93909091 C0.815213115,5.14636364 1.04104918,5.25204545 1.27032787,5.25204545 C1.45622951,5.25204545 1.6407541,5.18386364 1.79222951,5.04204545 L4.88232787,2.17568182 C5.22314754,1.86068182 5.26514754,1.30295455 4.97596721,0.932045455 C4.81691803,0.724772727 4.58901639,0.618409091 4.35904918,0.618409091 C4.17452459,0.618409091 3.98931148,0.686590909 3.83852459,0.828409091 Z" id="path-7"></path>
        <path d="M5.85383607,0.491590909 L0.983213115,1.44340909 C0.516393443,1.5375 0.207934426,2.01340909 0.293311475,2.51045455 C0.371114754,2.95090909 0.731213115,3.25977273 1.13606557,3.25977273 C1.18770492,3.25977273 1.24003279,3.25431818 1.29167213,3.24613636 L6.16436066,2.29090909 C6.62980328,2.19886364 6.9382623,1.72431818 6.85219672,1.22659091 C6.77508197,0.780681818 6.41429508,0.479318182 5.99567213,0.479318182 C5.94954098,0.479318182 5.90134426,0.483409091 5.85383607,0.491590909 Z" id="path-9"></path>
        <path d="M0.299508197,1.31386364 C0.192098361,1.80886364 0.52052459,2.29022727 1.02934426,2.39454545 L5.72990164,3.34840909 C5.796,3.36136364 5.86003279,3.36681818 5.9247541,3.36681818 C6.36196721,3.36681818 6.75236066,3.07090909 6.84737705,2.64136364 C6.95272131,2.14704545 6.62567213,1.66431818 6.11685246,1.56 L1.41629508,0.608863636 C1.3467541,0.593181818 1.27721311,0.586363636 1.2097377,0.586363636 C0.77252459,0.586363636 0.391081967,0.887727273 0.299508197,1.31386364 Z" id="path-11"></path>
        <path d="M3.58308197,0.221590909 L0.492983607,3.08795455 C0.152163934,3.40159091 0.110163934,3.96068182 0.399344262,4.33159091 C0.687147541,4.70454545 1.19734426,4.75227273 1.53747541,4.43386364 L4.62688525,1.5675 C4.96770492,1.25386364 5.00970492,0.695454545 4.72052459,0.323863636 C4.56078689,0.117272727 4.3342623,0.0109090909 4.10498361,0.0109090909 C3.91908197,0.0109090909 3.73455738,0.0797727273 3.58308197,0.221590909 Z" id="path-13"></path>
        <path d="M6.14921311,0.654545455 L1.27652459,1.60909091 C0.811081967,1.69977273 0.502622951,2.17568182 0.588688525,2.67340909 C0.674754098,3.16909091 1.10990164,3.48477273 1.58704918,3.40909091 L6.45767213,2.45522727 C6.9244918,2.36181818 7.23295082,1.88659091 7.14757377,1.38954545 C7.06977049,0.948409091 6.70967213,0.639545455 6.30481967,0.639545455 C6.25318033,0.639545455 6.20085246,0.645 6.14921311,0.654545455 Z" id="path-15"></path>
        <path d="M0.594196721,1.25795455 C0.488852459,1.75363636 0.815213115,2.235 1.32403279,2.33931818 L6.02459016,3.29113636 C6.54304918,3.40363636 7.03603279,3.07704545 7.14137705,2.58613636 C7.24947541,2.09045455 6.92036066,1.60840909 6.41154098,1.50477273 L1.71098361,0.550909091 C1.64488525,0.538636364 1.58016393,0.5325 1.51681967,0.5325 C1.07891803,0.5325 0.68852459,0.829090909 0.594196721,1.25795455 Z" id="path-17"></path>
    </defs>
    <g id="20180109_Support" stroke="none" stroke-width="1" fill="none" fill-rule="evenodd" transform="translate(-221.000000, -617.000000)">
        <g id="phone-icon" transform="translate(221.000000, 617.000000)">
            <polygon id="Fill-1" fill="#39B6E9" points="10.0339377 13.2203864 16.1156754 35.6003864 33.3577082 31.0451591 27.2745934 8.66379545"></polygon>
            <g id="Group-4" transform="translate(15.147541, 5.784341)">
                <mask id="mask-2" fill="white">
                    <use xlink:href="#path-1"></use>
                </mask>
                <g id="Clip-3"></g>
                <polygon id="Fill-2" fill="#1B2C48" mask="url(#mask-2)" points="-4.22134426 6.80795455 9.89478689 6.80795455 9.89478689 -4.31386364 -4.22134426 -4.31386364"></polygon>
            </g>
            <g id="Group-7" transform="translate(6.196721, 0.329795)">
                <mask id="mask-4" fill="white">
                    <use xlink:href="#path-3"></use>
                </mask>
                <g id="Clip-6"></g>
                <polygon id="Fill-5" fill="#1B2C48" mask="url(#mask-4)" points="-4.68127869 48.4090909 35.7846885 48.4090909 35.7846885 -4.42022727 -4.68127869 -4.42022727"></polygon>
            </g>
            <g id="Group-10" transform="translate(24.786885, 36.466159)">
                <mask id="mask-6" fill="white">
                    <use xlink:href="#path-5"></use>
                </mask>
                <g id="Clip-9"></g>
                <polygon id="Fill-8" fill="#1B2C48" mask="url(#mask-6)" points="-4.44993443 7.63909091 7.78445902 7.63909091 7.78445902 -4.41 -4.44993443 -4.41"></polygon>
            </g>
            <g id="Group-13" transform="translate(33.049180, 9.193432)">
                <mask id="mask-8" fill="white">
                    <use xlink:href="#path-7"></use>
                </mask>
                <g id="Clip-12"></g>
                <polygon id="Fill-11" fill="#1B2C48" mask="url(#mask-8)" points="-4.24268852 9.88704545 9.87344262 9.88704545 9.87344262 -4.01590909 -4.24268852 -4.01590909"></polygon>
            </g>
            <path d="M34.3196459,14.4458864 C34.5055475,14.4458864 34.6900721,14.3770227 34.8415475,14.2352045 L37.9316459,11.3688409 C38.2724656,11.0545227 38.3144656,10.4961136 38.0245967,10.1252045 C37.737482,9.75225 37.2265967,9.70452273 36.8871541,10.02225 L33.7977443,12.8886136 C33.4569246,13.2036136 33.4149246,13.7620227 33.7041049,14.1329318 C33.8638426,14.3395227 34.0903672,14.4458864 34.3196459,14.4458864" id="Stroke-14" stroke="#1B2C48" stroke-width="0.552631579"></path>
            <g id="Group-18" transform="translate(35.114754, 13.966159)">
                <mask id="mask-10" fill="white">
                    <use xlink:href="#path-9"></use>
                </mask>
                <g id="Clip-17"></g>
                <polygon id="Fill-16" fill="#1B2C48" mask="url(#mask-10)" points="-4.42652459 7.89477273 11.5720328 7.89477273 11.5720328 -4.15431818 -4.42652459 -4.15431818"></polygon>
            </g>
            <path d="M40.9685902,14.4572045 L36.0979672,15.4097045 C35.6311475,15.5037955 35.3226885,15.9790227 35.4080656,16.4760682 C35.4858689,16.9172045 35.8459672,17.22675 36.2508197,17.22675 C36.302459,17.22675 36.3554754,17.2206136 36.4071148,17.21175 L41.2791148,16.2572045 C41.7438689,16.1651591 42.0530164,15.6899318 41.9669508,15.1928864 C41.8815738,14.6972045 41.4457377,14.3801591 40.9685902,14.4572045" id="Stroke-19" stroke="#1B2C48" stroke-width="0.552631579"></path>
            <g id="Group-23" transform="translate(35.114754, 19.420705)">
                <mask id="mask-12" fill="white">
                    <use xlink:href="#path-11"></use>
                </mask>
                <g id="Clip-22"></g>
                <polygon id="Fill-21" fill="#1B2C48" mask="url(#mask-12)" points="-4.42652459 8.00113636 11.5720328 8.00113636 11.5720328 -4.04795455 -4.42652459 -4.04795455"></polygon>
            </g>
            <path d="M41.2314689,20.9811136 L36.5309115,20.0292955 C36.0124525,19.9161136 35.5201574,20.2427045 35.4141246,20.7342955 C35.3067148,21.2292955 35.635141,21.7113409 36.1439607,21.8156591 L40.844518,22.7695227 C40.9113049,22.7817955 40.9746492,22.78725 41.0393705,22.78725 C41.4765836,22.78725 41.866977,22.4913409 41.9619934,22.0624773 C42.0673377,21.5674773 41.740977,21.08475 41.2314689,20.9811136" id="Stroke-24" stroke="#1B2C48" stroke-width="0.552631579"></path>
            <g id="Group-28" transform="translate(4.131148, 25.557068)">
                <mask id="mask-14" fill="white">
                    <use xlink:href="#path-13"></use>
                </mask>
                <g id="Clip-27"></g>
                <polygon id="Fill-26" fill="#1B2C48" mask="url(#mask-14)" points="-4.49813115 9.27954545 9.618 9.27954545 9.618 -4.62340909 -4.49813115 -4.62340909"></polygon>
            </g>
            <path d="M8.2360623,25.5680455 C8.05016066,25.5680455 7.86563607,25.6369091 7.71416066,25.7787273 L4.6240623,28.6450909 C4.28324262,28.9594091 4.24124262,29.5178182 4.53111148,29.8887273 C4.81822623,30.2616818 5.32911148,30.3094091 5.6685541,29.991 L8.75796393,27.1246364 C9.09878361,26.8103182 9.14078361,26.2519091 8.85160328,25.881 C8.69186557,25.6737273 8.46534098,25.5680455 8.2360623,25.5680455" id="Stroke-29" stroke="#1B2C48" stroke-width="0.552631579"></path>
            <g id="Group-33" transform="translate(0.000000, 22.147977)">
                <mask id="mask-16" fill="white">
                    <use xlink:href="#path-15"></use>
                </mask>
                <g id="Clip-32"></g>
                <polygon id="Fill-31" fill="#1B2C48" mask="url(#mask-16)" points="-4.13114754 8.05431818 11.8667213 8.05431818 11.8667213 -3.99477273 -4.13114754 -3.99477273"></polygon>
            </g>
            <path d="M1.58718689,25.5567273 L6.45780984,24.6035455 C6.92394098,24.5101364 7.23308852,24.0349091 7.14771148,23.5371818 C7.0699082,23.0967273 6.70980984,22.7871818 6.30495738,22.7871818 C6.25331803,22.7871818 6.20030164,22.7926364 6.1486623,22.8021818 L1.2766623,23.7567273 C0.811908197,23.8480909 0.502760656,24.3233182 0.58882623,24.8210455 C0.674203279,25.3167273 1.11003934,25.6330909 1.58718689,25.5567273" id="Stroke-34" stroke="#1B2C48" stroke-width="0.552631579"></path>
            <g id="Group-38" transform="translate(0.000000, 16.693432)">
                <mask id="mask-18" fill="white">
                    <use xlink:href="#path-17"></use>
                </mask>
                <g id="Clip-37"></g>
                <polygon id="Fill-36" fill="#1B2C48" mask="url(#mask-18)" points="-4.13114754 7.94795455 11.8667213 7.94795455 11.8667213 -4.10113636 -4.13114754 -4.10113636"></polygon>
            </g>
            <path d="M1.32389508,19.0328864 L6.02445246,19.9847045 C6.5436,20.0978864 7.03589508,19.7706136 7.14123934,19.2790227 C7.24864918,18.7847045 6.92022295,18.3019773 6.41140328,18.1976591 L1.7108459,17.2444773 C1.64474754,17.2315227 1.58071475,17.22675 1.51668197,17.22675 C1.07878033,17.22675 0.688386885,17.5226591 0.594059016,17.9515227 C0.488714754,18.4465227 0.81507541,18.9285682 1.32389508,19.0328864" id="Stroke-39" stroke="#1B2C48" stroke-width="0.552631579"></path>
        </g>
    </g>
</svg>