<?xml version="1.0" encoding="UTF-8"?>
<svg width="50px" height="40px" viewBox="0 0 50 40" version="1.1" xmlns="http://www.w3.org/2000/svg" xmlns:xlink="http://www.w3.org/1999/xlink">
    <!-- Generator: Sketch 48.2 (47327) - http://www.bohemiancoding.com/sketch -->
    <title>chat-icon</title>
    <desc>Created with Sketch.</desc>
    <defs>
        <path d="M18.3089231,6.84186885 C18.3089231,15.6890164 10.3316923,22.9843934 0.156923077,23.8309836 C3.18030769,26.1172131 7.224,27.5157377 11.6695385,27.5157377 C12.9009231,27.5157377 14.1003077,27.4054754 15.2572308,27.2017705 C15.2578462,27.2017705 15.2584615,27.2023934 15.2584615,27.2023934 C23.6996923,31.526918 26.6363077,29.9739016 26.6363077,29.9739016 C23.0664615,26.1477377 23.456,23.622918 23.456,23.622918 C26.6387692,21.1086885 28.6172308,17.5852787 28.6172308,13.6843607 C28.6172308,7.5264918 23.6861538,2.31114754 16.872,0.518918033 C17.7956923,2.47560656 18.3089231,4.60796721 18.3089231,6.84186885 Z" id="path-1"></path>
        <path d="M0.260307692,13.6687869 C0.260307692,17.4843607 2.19876923,20.9305246 5.31630769,23.3893115 C5.31630769,23.3893115 5.69784615,25.8605574 2.20123077,29.601377 C2.20123077,29.601377 5.07753846,31.1201311 13.3470769,26.890918 L13.3476923,26.8902951 C14.4812308,27.0896393 15.656,27.1974098 16.8621538,27.1974098 C26.0301538,27.1974098 33.4633846,21.141082 33.4633846,13.6687869 C33.4633846,6.1977377 26.0301538,0.140163934 16.8621538,0.140163934 C7.69292308,0.140163934 0.260307692,6.1977377 0.260307692,13.6687869 Z" id="path-3"></path>
    </defs>
    <g id="20180109_Support" stroke="none" stroke-width="1" fill="none" fill-rule="evenodd" transform="translate(-582.000000, -621.000000)">
        <g id="chat-icon" transform="translate(583.000000, 622.000000)">
            <g id="Group-3" transform="translate(19.076923, 6.991315)">
                <mask id="mask-2" fill="white">
                    <use xlink:href="#path-1"></use>
                </mask>
                <g id="Clip-2"></g>
                <polygon id="Fill-1" fill="#39B6E9" mask="url(#mask-2)" points="-3.79569231 34.2622951 32.5698462 34.2622951 32.5698462 -3.4984918 -3.79569231 -3.4984918"></polygon>
            </g>
            <path d="M42.5329231,30.6142328 C45.7156923,28.1000033 47.6941538,24.5765934 47.6941538,20.6756754 C47.6941538,14.5178066 42.7630769,9.3024623 35.9489231,7.51023279 C36.8726154,9.46692131 37.3858462,11.5999049 37.3858462,13.8331836 C37.3858462,22.6803311 29.4092308,29.9757082 19.2338462,30.8229213 C22.2572308,33.1085279 26.3009231,34.5070525 30.7464615,34.5070525 C31.9778462,34.5070525 33.1772308,34.3967902 34.3341538,34.1930852 C34.3347692,34.1930852 34.3353846,34.1937082 34.3353846,34.1937082 C42.7766154,38.5182328 45.7132308,36.9652164 45.7132308,36.9652164 C42.1433846,33.1396754 42.5329231,30.6142328 42.5329231,30.6142328 Z" id="Stroke-4" stroke="#1B2C48" stroke-width="1.99531002"></path>
            <g id="Group-8" transform="translate(0.000000, 0.138856)">
                <mask id="mask-4" fill="white">
                    <use xlink:href="#path-3"></use>
                </mask>
                <g id="Clip-7"></g>
                <polygon id="Fill-6" fill="#317BBC" mask="url(#mask-4)" points="-3.69230769 33.8841639 37.4172308 33.8841639 37.4172308 -3.87662295 -3.69230769 -3.87662295"></polygon>
            </g>
            <path d="M16.8622154,0.279393443 C7.6936,0.279393443 0.260369231,6.33634426 0.260369231,13.8080164 C0.260369231,17.6229672 2.19883077,21.0691311 5.31575385,23.528541 C5.31575385,23.528541 5.69729231,25.9991639 2.20129231,29.7406066 C2.20129231,29.7406066 5.0776,31.2587377 13.3465231,27.0295246 L13.3477538,27.0289016 C14.4812923,27.2282459 15.6560615,27.3366393 16.8622154,27.3366393 C26.0302154,27.3366393 33.4640615,21.2796885 33.4640615,13.8080164 C33.4640615,6.33634426 26.0302154,0.279393443 16.8622154,0.279393443 Z" id="Stroke-9" stroke="#1B2C48" stroke-width="1.99531002"></path>
        </g>
    </g>
</svg>