<svg id="Layer_3" data-name="Layer 3" xmlns="http://www.w3.org/2000/svg" viewBox="0 0 40 40" width="40px" height="40px"><defs><style>.cls-1{fill:#3db6e8;}.cls-2{fill:#24406a;}.cls-3{fill:#fff;}</style></defs><title>Artboard 81</title><path class="cls-1" d="M12.56,29.29a.32.32,0,0,0-.22.09h0L5.68,36V29.57a.29.29,0,0,0-.31-.28H2.61A.59.59,0,0,1,2,28.73V18.56A.59.59,0,0,1,2.61,18H16.39a.59.59,0,0,1,.61.56V28.73a.59.59,0,0,1-.61.56Z"/><path class="cls-2" d="M17,25v3.73a.59.59,0,0,1-.61.56H12.56a.32.32,0,0,0-.22.09h0L5.68,36V29.57a.29.29,0,0,0-.31-.28H2.61A.59.59,0,0,1,2,28.73V18.56A.59.59,0,0,1,2.61,18H7V16H2.61A2.59,2.59,0,0,0,0,18.56V28.73a2.59,2.59,0,0,0,2.61,2.56H3.68V36a2,2,0,0,0,3.41,1.42l6.16-6.12h3.14A2.59,2.59,0,0,0,19,28.73V25Z"/><path class="cls-3" d="M20.78,25a.5.5,0,0,1,.37.16h0L32,37V25.5a.5.5,0,0,1,.5-.5H37a1,1,0,0,0,1-1V4a1,1,0,0,0-1-1H8A1,1,0,0,0,7,4V24a1,1,0,0,0,1,1Z"/><path class="cls-2" d="M37,3a1,1,0,0,1,1,1V24a1,1,0,0,1-1,1H32.5a.5.5,0,0,0-.5.5V37L21.15,25.16h0a.5.5,0,0,0-.37-.16H8a1,1,0,0,1-1-1V4A1,1,0,0,1,8,3H37m0-2H8A3,3,0,0,0,5,4V24a3,3,0,0,0,3,3H20.12L30.52,38.35A2,2,0,0,0,34,37V27h3a3,3,0,0,0,3-3V4a3,3,0,0,0-3-3Z"/><circle class="cls-2" cx="30.56" cy="13.8" r="2.5"/><circle class="cls-2" cx="22.44" cy="13.8" r="2.5"/><circle class="cls-2" cx="14.44" cy="13.8" r="2.5"/></svg>