<svg xmlns="http://www.w3.org/2000/svg" xmlns:xlink="http://www.w3.org/1999/xlink" width="61.33" height="61.33" viewBox="0 0 92 92"><defs><path id="a" d="M289.953 5088.387h-41.596c-13.643 0-24.702-11.06-24.702-24.702v-41.596c0-13.642 11.059-24.702 24.702-24.702h41.596c13.643 0 24.702 11.06 24.702 24.702v41.596c0 13.643-11.06 24.702-24.702 24.702z"/><path id="c" d="M268.921 5019.671c-.018 0-.173.002-.201 0-.036 0-.189-.007-.455-.007-2.118 0-13.081.404-25.503 8.215.72 6.027 4.843 29.656 26.096 44.221 22.381-14.52 26.775-38.099 27.553-44.189-13.139-7.841-24.754-8.247-26.998-8.247-.25 0-.413.004-.492.007z"/><path id="e" d="M268.935 5020h-.23a9.958 9.958 0 0 0-.44-.007c-2.051 0-12.864.39-25.151 8.053.857 6.929 5.19 29.457 25.749 43.659 21.663-14.166 26.274-36.684 27.194-43.623-13.006-7.697-24.47-8.089-26.644-8.089-.246 0-.404.005-.478.007z"/><path id="g" d="M285.349 5024.167c.578 6.628.941 27.888-14.905 45.803 19.234-14.05 23.475-34.795 24.348-41.374-4.362-2.845-10.275-4.7-9.443-4.429z"/><path id="i" d="M253.552 5024.167c-.577 6.628-.94 27.888 14.905 45.803-19.234-14.05-23.476-34.795-24.348-41.374 4.363-2.845 10.274-4.7 9.443-4.429z"/><path id="j" d="M265.584 5060.682l-12.09-12.091 6.069-6.071 6.021 6.02 17.825-17.824 6.07 6.07z"/><path id="k" d="M265.95 5058.203l-11.54-11.54 5.519-5.518 6.02 6.02 17.826-17.824 5.518 5.518z"/><path id="l" d="M265.95 5058.755l-12.091-12.091 6.07-6.07 6.02 6.02 17.826-17.825 6.069 6.07zm-10.987-12.091l10.987 10.988 22.79-22.792-4.965-4.967-17.825 17.825-6.021-6.021z"/><linearGradient id="b" x1="235.94" x2="285.98" y1="5002.09" y2="5054.39" gradientUnits="userSpaceOnUse"><stop offset="0" stop-color="#606060"/><stop offset=".23" stop-color="#afb1b4"/><stop offset=".42" stop-color="#fff"/><stop offset=".62" stop-color="#a8a9a9"/><stop offset=".87" stop-color="#858688"/><stop offset="1" stop-color="#f1f2f2"/></linearGradient><linearGradient id="d" x1="243.11" x2="296.06" y1="5045.85" y2="5045.85" gradientUnits="userSpaceOnUse"><stop offset="0" stop-color="#0694ea"/><stop offset=".01" stop-color="#0694ea"/><stop offset="1" stop-color="#9dc137"/><stop offset="1" stop-color="#9dc137"/></linearGradient><linearGradient id="f" x1="310.18" x2="265.01" y1="5022.85" y2="5056.68" gradientUnits="userSpaceOnUse"><stop offset="0" stop-color="#fff"/><stop offset="1"/></linearGradient><linearGradient id="h" x1="228.72" x2="273.89" y1="5022.85" y2="4989.02" gradientUnits="userSpaceOnUse"><stop offset="0" stop-color="#fff"/><stop offset="1"/></linearGradient></defs><use fill="#fff" xlink:href="#a" transform="translate(-223 -4997)"/><use fill="url(#b)" xlink:href="#c" transform="translate(-223 -4997)"/><use fill="url(#d)" xlink:href="#e" transform="translate(-223 -4997)"/><use fill="url(#f)" xlink:href="#g" transform="translate(-223 -4997)"/><use fill="url(#h)" xlink:href="#i" transform="translate(-223 -4997)"/><use fill="#fff" xlink:href="#j" opacity=".5" transform="translate(-223 -4997)"/><use fill="#fff" xlink:href="#k" transform="translate(-223 -4997)"/><use fill="#fff" xlink:href="#l" transform="translate(-223 -4997)"/></svg>