<?xml version="1.0" encoding="UTF-8"?>
<svg width="41px" height="40px" viewBox="0 0 41 40" version="1.1" xmlns="http://www.w3.org/2000/svg" xmlns:xlink="http://www.w3.org/1999/xlink">
    <!-- Generator: Sketch 48.2 (47327) - http://www.bohemiancoding.com/sketch -->
    <title>slack-icon</title>
    <desc>Created with Sketch.</desc>
    <defs></defs>
    <g id="20180109_Support" stroke="none" stroke-width="1" fill="none" fill-rule="evenodd" transform="translate(-747.000000, -621.000000)">
        <g id="slack-icon" transform="translate(748.000000, 622.000000)" fill="#39B6E9" stroke="#243F69" stroke-width="2">
            <polygon id="Fill-13" stroke-linecap="round" stroke-linejoin="round" points="16.8648649 17.465001 21.6434619 15.8333333 23.1891892 20.5362305 18.4105922 22.1666667"></polygon>
            <path d="M37.3656031,13.7751456 C33.3428208,0.711726972 27.5443572,-2.32624681 14.1377018,1.59304146 C0.729736891,5.51101629 -2.38687181,11.1627245 1.63460101,24.2261431 C5.65738333,37.2882483 11.4558469,40.3262221 24.8625023,36.4069338 C38.2691577,32.488959 41.3870759,26.8385642 37.3656031,13.7751456 M30.5994194,22.2507378 L28.0747045,23.0716343 L28.9468311,25.6223239 C29.2899199,26.6559968 28.7294542,27.7802966 27.6687596,28.113909 C27.4500732,28.174327 27.2012683,28.2347449 26.9825819,28.2058494 C26.1720017,28.174327 25.3928496,27.6581472 25.1126167,26.8674597 L24.2391806,24.3167701 L19.0326107,26.0176677 L19.9060469,28.5696707 C20.2478262,29.6020302 19.6873605,30.72633 18.6266659,31.0612558 C18.4079795,31.1216738 18.1591746,31.1807783 17.9417977,31.1518827 C17.129908,31.1216738 16.3507559,30.605494 16.070523,29.8148065 L15.1970868,27.2628035 L12.6723719,28.0837 C12.4536855,28.144118 12.2048806,28.2058494 11.9861942,28.174327 C11.175614,28.144118 10.3964618,27.6266248 10.1149195,26.8385642 C9.77183061,25.8048913 10.3336059,24.6805914 11.3943004,24.3456657 L13.9190154,23.5260826 L12.2363086,18.6361663 L9.71028413,19.4557494 C9.49159773,19.5174808 9.24148333,19.5765853 9.02410642,19.5476898 C8.21352626,19.5174808 7.43437409,18.9999876 7.1528317,18.2106136 C6.81105235,17.1769407 7.37151811,16.0539543 8.43221267,15.7190285 L10.9569276,14.8994454 L10.084801,12.3474424 C9.74171212,11.3137695 10.3021779,10.1907831 11.3628724,9.8558573 C12.4222575,9.52224496 13.5759265,10.0686337 13.9190154,11.1009931 L14.7924515,13.6529962 L19.9990213,11.9520986 L19.1255852,9.40009556 C18.7838058,8.36773612 19.3442716,7.24343627 20.4036567,6.90982393 C21.4643512,6.57489816 22.6180202,7.1226003 22.9611091,8.15495975 L23.8345452,10.7069628 L26.3592602,9.88737973 C27.4199547,9.55245395 28.5736237,10.0988427 28.9154031,11.1312021 C29.2598015,12.164875 28.6980262,13.2891748 27.6373316,13.6227872 L25.1126167,14.4436837 L26.7953235,19.3336 L29.3213479,18.5140169 C30.3820425,18.1804046 31.534402,18.7267933 31.8788004,19.7591527 C32.2205797,20.7915122 31.660114,21.9171254 30.5994194,22.2507378" id="Fill-15"></path>
        </g>
    </g>
</svg>