<svg xmlns="http://www.w3.org/2000/svg" xmlns:xlink="http://www.w3.org/1999/xlink" width="22.67" height="26" viewBox="0 0 34 39"><defs><path id="a" d="M315.03 2507.814a.753.753 0 1 1-1.507.001.753.753 0 0 1 1.507-.001z"/><path id="c" d="M296.528 2487.646c-2.651 6.332-.865 10.207 1.202 14.695 1.675 3.632 3.572 7.749 3.572 14.18v.793c0 .418.337.755.754.755h13.578a.754.754 0 0 0 .753-.755v-4.976c0-.415.336-.755.75-.755h4.525a2.267 2.267 0 0 0 2.266-2.261v-5.806h2.902c.857 0 1.63-.475 2.018-1.24a2.252 2.252 0 0 0-.194-2.361l-4.732-6.452c-.104-7.2-4.802-12.361-11.412-13.689a16.069 16.069 0 0 0-3.14-.314c-5.415 0-10.585 2.796-12.842 8.186z"/><path id="d" d="M316.538 2507.814c0 .417.338.754.754.754h3.016a.753.753 0 1 0 0-1.508h-3.016a.755.755 0 0 0-.754.754z"/><path id="e" d="M309.751 2494.467h4.525a.754.754 0 1 0 0-1.508h-3.77v-3.77a.754.754 0 1 0-1.509 0v4.524c0 .417.338.754.754.754z"/><path id="f" d="M309.751 2502.762c4.99 0 9.05-4.06 9.05-9.05 0-4.988-4.06-9.048-9.05-9.048-4.989 0-9.049 4.06-9.049 9.049s4.06 9.049 9.05 9.049zm0-16.59c4.158 0 7.541 3.384 7.541 7.54 0 4.159-3.383 7.542-7.54 7.542-4.159 0-7.54-3.383-7.54-7.541 0-4.157 3.381-7.54 7.54-7.54z"/><linearGradient id="b" x1="296.08" x2="322.39" y1="2512.4" y2="2486.09" gradientUnits="userSpaceOnUse"><stop offset="0" stop-color="#0693e9"/><stop offset=".01" stop-color="#0693e9"/><stop offset="1" stop-color="#9cc037"/><stop offset="1" stop-color="#9cc037"/></linearGradient></defs><use xlink:href="#a" transform="translate(-295 -2479)"/><use fill="url(#b)" xlink:href="#c" transform="translate(-295 -2479)"/><use fill="#fff" xlink:href="#d" transform="translate(-295 -2479)"/><use fill="#fff" xlink:href="#e" transform="translate(-295 -2479)"/><use fill="#fff" xlink:href="#f" transform="translate(-295 -2479)"/></svg>